<?xml version="1.0" standalone="no"?>
<!DOCTYPE svg PUBLIC "-//W3C//DTD SVG 1.1//EN" "http://www.w3.org/Graphics/SVG/1.1/DTD/svg11.dtd" >
<svg xmlns="http://www.w3.org/2000/svg">
<metadata>
This is a custom SVG webfont generated by Font Squirrel.
Copyright   : Copyright c 20082009 Dalton Maag Ltd All rights reserved This font may not be altered in any way without prior permission of Dalton Maag Ltd DaMa is a trademark of Dalton Maag Ltd
Designer    : Dalton Maag Ltd
Foundry     : Dalton Maag Ltd
Foundry URL : httpwwwdaltonmaagcom
</metadata>
<defs>
<font id="LexiaTypoAdRegular" horiz-adv-x="1130" >
<font-face units-per-em="2048" ascent="1638" descent="-410" />
<missing-glyph horiz-adv-x="339" />
<glyph unicode=" "  horiz-adv-x="339" />
<glyph unicode="&#x09;" horiz-adv-x="339" />
<glyph unicode="&#xa0;" horiz-adv-x="339" />
<glyph unicode="!" horiz-adv-x="509" d="M35 1239h440l-45 -772h-348zM39 188q0 47 3 94.5t5 96.5h418l4 -96q2 -47 2 -95q0 -47 -2 -94l-4 -94h-418q-2 47 -5 94t-3 94z" />
<glyph unicode="&#x22;" horiz-adv-x="923" d="M33 1239h379l-45 -524h-291zM514 1239h379l-45 -524h-291z" />
<glyph unicode="#" horiz-adv-x="1277" d="M31 242l65 280h119l47 195h-117l68 280h115l57 242h324l-58 -242h162l57 242h324l-59 -242h114l-65 -280h-117l-47 -195h115l-68 -280h-113l-59 -242h-322l58 242h-160l-57 -242h-324l57 242h-116zM537 522h159l49 195h-159z" />
<glyph unicode="$" horiz-adv-x="1136" d="M47 0v442l85 4q42 2 85 3q43 0 85 -3l87 -4v-32q0 -49 46 -82t143 -33q66 0 91 15.5t25 43.5q0 47 -71 66l-299 80q-139 35 -206 121t-67 217q0 88 32 154.5t83 110.5t118.5 69.5t139.5 31.5v162h262v-182q31 -10 57 -27v51q35 4 72 5t74 1t73.5 -1t73.5 -5v-399 q-41 -4 -84 -5t-86 -1t-85 1t-85 5v18q0 39 -34.5 69t-118.5 30q-68 0 -90.5 -19.5t-22.5 -42.5q0 -14 9.5 -24.5t37.5 -18.5l268 -65q113 -27 181.5 -69t103.5 -92t47.5 -109.5t12.5 -120.5q0 -104 -38 -173t-97.5 -111t-131 -59.5t-137.5 -21.5v-174h-262v197 q-18 6 -36.5 13t-33.5 15v-51q-39 -4 -77.5 -5t-77.5 -1t-76 1t-76 5z" />
<glyph unicode="%" horiz-adv-x="1767" d="M20 913q0 80 27 142.5t75 106.5t113.5 68.5t145.5 24.5q78 0 144.5 -24.5t113.5 -69.5t74.5 -107.5t27.5 -140.5q0 -80 -27.5 -143t-74.5 -108.5t-113.5 -69t-144.5 -23.5q-80 0 -145.5 23.5t-113.5 68t-75 108.5t-27 144zM313 913q0 -66 20.5 -92t47.5 -26 q33 0 50.5 26.5t17.5 91.5q0 63 -19.5 89t-48.5 26t-48.5 -27t-19.5 -88zM367 0l727 1239h313l-725 -1239h-315zM1026 317q0 80 26.5 143.5t75 107.5t114 67.5t144.5 23.5q78 0 144.5 -23.5t115 -68.5t75 -108.5t26.5 -141.5q0 -80 -26.5 -142t-75 -107t-115 -69t-144.5 -24 q-80 0 -145 24t-113.5 68t-75 107t-26.5 143zM1319 317q0 -63 20.5 -89.5t46.5 -26.5q33 0 50.5 26.5t17.5 89.5q0 66 -19.5 91.5t-48.5 25.5t-48 -28t-19 -89z" />
<glyph unicode="&#x26;" horiz-adv-x="1290" d="M16 354q0 49 12.5 100.5t40 100.5t74.5 94t115 80q-33 55 -41 100t-8 78q0 152 96 243t270 91q47 0 88.5 -3t83 -12t86 -21.5t97.5 -30.5v-287q-94 49 -159.5 66.5t-96.5 17.5q-35 0 -61.5 -16.5t-26.5 -49.5q0 -20 14 -44.5t49 -69.5l172 -205q25 78 31 182h362 q4 -37 6.5 -74t2.5 -73q0 -37 -2 -73t-7 -73h-112q-4 -10 -18.5 -50t-45.5 -97l31 -33h180q4 -39 5 -75t1 -75q0 -37 -1 -73.5t-5 -71.5h-389l-57 68q-68 -41 -150 -67t-186 -26q-125 0 -211 38t-138 95.5t-77 123t-25 122.5zM365 389q0 -53 35.5 -80.5t95.5 -27.5 q14 0 42.5 4t65.5 20l-164 197q-49 -23 -62 -58t-13 -55z" />
<glyph unicode="'" horiz-adv-x="442" d="M33 1239h379l-45 -524h-291z" />
<glyph unicode="(" horiz-adv-x="681" d="M16 500q0 205 61.5 401.5t192.5 386.5h396q-47 -82 -89 -173t-75 -191.5t-52.5 -207t-19.5 -216.5q0 -111 19.5 -217.5t52.5 -204.5t74.5 -190.5t89.5 -172.5h-396q-131 190 -192.5 385t-61.5 400z" />
<glyph unicode=")" horiz-adv-x="681" d="M16 -285q49 80 91.5 172.5t75 190.5t52 204.5t19.5 217.5t-19.5 217t-52 206.5t-74.5 191.5t-92 173h398q131 -190 191.5 -386.5t60.5 -401.5t-60.5 -399.5t-191.5 -385.5h-398z" />
<glyph unicode="*" horiz-adv-x="768" d="M16 877l103 294l153 -108l-47 176h320l-49 -176l153 108l103 -294l-193 -9l148 -123l-256 -176l-66 162l-68 -162l-256 176l148 123z" />
<glyph unicode="+" horiz-adv-x="985" d="M35 455v327h280v314h357v-314h278v-327h-276v-312h-359v312h-280z" />
<glyph unicode="," horiz-adv-x="501" d="M35 188q0 47 3 94.5t7 96.5h414q4 -49 5 -96t1 -95q0 -47 -1 -94t-5 -94q-2 0 -26 -36l-52 -79l-76 -110h-268l65 110l43 79q20 36 23 36h-123q-4 47 -7 94t-3 94z" />
<glyph unicode="-" horiz-adv-x="618" d="M16 535q0 41 2 81.5t7 83.5h569q4 -43 6 -84t2 -81q0 -43 -2 -84t-6 -82h-569q-4 41 -6.5 82t-2.5 84z" />
<glyph unicode="." horiz-adv-x="501" d="M35 188q0 47 3 94.5t7 96.5h414q4 -49 5 -96t1 -95q0 -47 -1 -94t-5 -94h-414q-4 47 -7 94t-3 94z" />
<glyph unicode="/" horiz-adv-x="770" d="M8 0l430 1239h326l-430 -1239h-326z" />
<glyph unicode="0" horiz-adv-x="1118" d="M31 606q0 113 22.5 225.5t81 203.5t160.5 147.5t264 56.5t264.5 -56.5t161.5 -147.5t82 -203.5t23 -225.5q0 -74 -9.5 -151.5t-33 -148t-62.5 -132t-97.5 -106.5t-140 -72t-188.5 -27q-162 0 -264 57.5t-160.5 147.5t-81 204.5t-22.5 227.5zM463 606q0 -111 7 -176 t20.5 -98t31 -42t37.5 -9t37.5 9t31 42t20.5 98.5t7 175.5q0 113 -7 179.5t-20.5 101.5t-30.5 46t-38 11q-20 0 -37.5 -11t-31 -46t-20.5 -101.5t-7 -179.5z" />
<glyph unicode="1" horiz-adv-x="819" d="M35 154q0 39 2 75.5t6 75.5h168v598h-168q-4 39 -6 76t-2 76q0 41 2 77.5t6 75.5h582v-903h153q4 -39 5 -75.5t1 -75.5t-1 -77t-5 -77h-735q-4 39 -6 77t-2 77z" />
<glyph unicode="2" horiz-adv-x="1089" d="M41 0v133q0 86 22.5 157.5t60.5 129t84 101.5t92 79t88 59.5l71 42.5l82 53q31 19 47 35.5t21 31t5 30.5q0 33 -23.5 57.5t-86.5 24.5q-39 0 -87 -12.5t-100.5 -38t-106.5 -64.5t-106 -92v379q37 23 86.5 46.5t110.5 42.5t132 31.5t149 12.5q88 0 171 -21.5t147.5 -66.5 t104 -115.5t39.5 -171.5q0 -76 -26.5 -130t-69.5 -96t-96 -76l-109 -68q-102 -66 -167.5 -117t-69.5 -96h162v73l94 4q47 2 96 2q47 0 95 -2l98 -4v-354h-1010z" />
<glyph unicode="3" horiz-adv-x="1048" d="M35 39v336q111 -47 205 -68.5t180 -21.5q76 0 119 19.5t43 72.5q0 51 -41 69.5t-117 18.5h-129q-4 37 -6 73.5t-2 75.5q0 37 2 74t6 78h117q74 0 103.5 24.5t29.5 65.5q0 39 -28 62.5t-91 23.5q-61 0 -151.5 -26.5t-208.5 -106.5v326q66 39 182.5 71.5t265.5 32.5 q106 0 191.5 -25.5t144.5 -71.5t92 -107.5t33 -135.5q0 -82 -36 -146.5t-112 -107.5q92 -51 139.5 -120.5t47.5 -170.5q0 -82 -35 -152.5t-102.5 -122.5t-165 -81t-219.5 -29q-135 0 -251 19.5t-206 50.5z" />
<glyph unicode="4" horiz-adv-x="1118" d="M35 178v297l532 733h396v-759h114q4 -37 6 -71t2 -67q0 -35 -2 -65.5t-6 -67.5h-114v-178h-396v178h-532zM358 449h209v292z" />
<glyph unicode="5" horiz-adv-x="1017" d="M35 41v330q76 -35 173 -58.5t189 -23.5q82 0 120 26.5t38 90.5q0 57 -31.5 80.5t-68.5 23.5q-29 0 -66 -14.5t-65 -63.5h-281l76 776h790q4 -39 5 -75.5t1 -77.5q0 -39 -1 -76t-5 -76h-499l-15 -133q20 10 69.5 23.5t123.5 13.5q80 0 152.5 -20.5t126 -66.5t85 -120 t31.5 -174q0 -76 -22.5 -157t-81 -147.5t-161 -109.5t-259.5 -43q-90 0 -162 8.5t-124 20.5t-86 24.5t-52 18.5z" />
<glyph unicode="6" horiz-adv-x="1064" d="M31 571q0 74 12 152t39 151.5t72 140t109.5 117t152.5 79t200 28.5q113 0 196 -14.5t155 -44.5v-291q-49 25 -118 43t-134 18q-104 0 -160.5 -47t-67.5 -129q8 8 22.5 19.5t39 21.5t59.5 18.5t84 8.5q61 0 121.5 -20.5t111 -68.5t80 -127t29.5 -194q0 -217 -125 -340 t-366 -123q-143 0 -240.5 46t-158 127t-87 191.5t-26.5 237.5zM444 401q0 -76 25 -108.5t76 -32.5q41 0 66.5 31t25.5 112q0 78 -22.5 115t-73.5 37q-47 0 -72 -36t-25 -118z" />
<glyph unicode="7" horiz-adv-x="1019" d="M35 805v403h950v-295l-471 -913h-414l492 913h-195v-108q-49 -2 -93 -4t-89 -2q-43 0 -87 2t-93 4z" />
<glyph unicode="8" horiz-adv-x="1107" d="M31 371q0 31 7 67.5t24.5 74.5t49 75t81.5 67q-61 39 -92 100.5t-31 139.5q0 68 27.5 129t87 109.5t150.5 77t220 28.5t221 -28.5t150.5 -77t87 -109.5t28.5 -129q0 -156 -127 -240q49 -31 82 -66.5t50.5 -74.5t24.5 -75t7 -68q0 -84 -31.5 -157t-96 -127t-163 -86 t-233.5 -32t-233.5 32t-163 86t-96 127t-31.5 157zM455 375q0 -74 29.5 -101.5t70.5 -27.5q39 0 69.5 27.5t30.5 101.5q0 61 -28.5 96t-71.5 35t-71.5 -35t-28.5 -96zM457 870q0 -70 25.5 -102.5t72.5 -32.5q45 0 71.5 33t26.5 102q0 57 -23.5 97.5t-74.5 40.5 q-49 0 -73.5 -40.5t-24.5 -97.5z" />
<glyph unicode="9" horiz-adv-x="1064" d="M31 776q0 217 125 340t368 123q141 0 239.5 -46t159 -127t86 -190.5t25.5 -238.5q0 -111 -27.5 -227.5t-94 -216t-180.5 -162t-283 -62.5q-113 0 -195 14.5t-156 45.5v290q49 -25 118 -43t136 -18q102 0 158.5 47t67.5 129q-8 -8 -21.5 -18t-38 -21.5t-59.5 -19.5t-84 -8 q-61 0 -123 20.5t-111 68.5t-79.5 126.5t-30.5 193.5zM428 805q0 -78 23.5 -115t72.5 -37t74 36t25 118q0 78 -25 109.5t-76 31.5q-43 0 -68.5 -30.5t-25.5 -112.5z" />
<glyph unicode=":" horiz-adv-x="501" d="M35 188q0 47 3 94.5t7 96.5h414q4 -49 5 -96t1 -95q0 -47 -1 -94t-5 -94h-414q-4 47 -7 94t-3 94zM35 733q0 47 3 94.5t7 96.5h414q4 -49 5 -96t1 -95q0 -47 -1 -94t-5 -94h-414q-4 47 -7 94t-3 94z" />
<glyph unicode=";" horiz-adv-x="501" d="M35 188q0 47 3 94.5t7 96.5h414q4 -49 5 -96t1 -95q0 -47 -1 -94t-5 -94q-2 0 -26 -36l-52 -79l-76 -110h-268l65 110l43 79q20 36 23 36h-123q-4 47 -7 94t-3 94zM35 733q0 47 3 94.5t7 96.5h414q4 -49 5 -96t1 -95q0 -47 -1 -94t-5 -94h-414q-4 47 -7 94t-3 94z" />
<glyph unicode="&#x3c;" horiz-adv-x="985" d="M35 465v307l915 318v-371l-475 -98l475 -103v-371z" />
<glyph unicode="=" horiz-adv-x="985" d="M35 227v322h915v-322h-915zM35 688v322h915v-322h-915z" />
<glyph unicode="&#x3e;" horiz-adv-x="985" d="M35 147v371l477 103l-477 98v371l915 -318v-307z" />
<glyph unicode="?" horiz-adv-x="915" d="M35 825v340q80 39 190.5 72t243.5 33q98 0 178 -23.5t134.5 -65.5t84 -100.5t29.5 -130.5q0 -55 -14.5 -97t-38 -78t-55 -67.5t-68.5 -64.5q-49 -45 -66.5 -87t-19.5 -89h-389q0 68 10 119t28.5 90t45 68.5t63.5 60.5q55 45 79 67.5t24 49.5q0 20 -15.5 36.5t-68.5 16.5 q-45 0 -96.5 -12.5t-101.5 -33t-95 -48t-82 -56.5zM221 188q0 47 2 94.5t6 96.5h416q4 -49 6 -96t2 -95q0 -47 -2 -94t-6 -94h-416q-4 47 -6 94t-2 94z" />
<glyph unicode="@" horiz-adv-x="1298" d="M31 463q0 141 52 262t141 206t210 133t260 48q123 0 228.5 -40t182.5 -111.5t120 -171t43 -218.5q0 -117 -37 -206t-106.5 -150t-167 -94t-216.5 -33l-2 72q-18 -20 -64 -45t-124 -25q-41 0 -80 13.5t-69.5 40t-49 67.5t-18.5 94q0 117 62.5 171t187.5 75l149 24v15 q0 25 -18.5 41t-61.5 16q-61 0 -119.5 -21.5t-117.5 -56.5l4 197q49 23 118.5 46.5t155.5 23.5q47 0 94.5 -10.5t83 -35t59 -66.5t23.5 -108q0 -23 -1 -36l-3 -45l-12 -238q70 27 105.5 90.5t35.5 169.5q0 86 -27.5 153.5t-77.5 115.5t-122 75t-158 27q-104 0 -189 -34 t-146.5 -96.5t-94.5 -148.5t-33 -190q0 -113 32 -200t92.5 -146.5t145.5 -90t185 -30.5q131 0 232.5 35.5t173.5 85.5l94 -158q-123 -70 -242 -106.5t-260 -36.5q-152 0 -273.5 43t-205.5 127t-129 204.5t-45 276.5zM555 322q0 -23 14.5 -36.5t46.5 -13.5q39 0 70 18.5 t35 55.5l4 55l-80 -10q-49 -6 -69.5 -22t-20.5 -47z" />
<glyph unicode="A" horiz-adv-x="1409" d="M35 154q0 39 2 75.5t6 75.5h92l316 934h528l303 -934h84q4 -39 6 -75.5t2 -75.5t-2 -77t-6 -77h-592l-4 70q-2 35 -2 67q0 35 2 68l4 67h72l-21 93h-252l-20 -93h70l4 -67q2 -33 2 -68q0 -33 -2 -67l-4 -70h-580q-4 39 -6 77t-2 77zM625 635h153l-73 293z" />
<glyph unicode="B" horiz-adv-x="1189" d="M35 154q0 39 2 75.5t6 75.5h78v629h-78q-4 39 -6 76t-2 75q0 39 2 77t6 77h651q104 0 182 -27.5t129.5 -73.5t77 -106.5t25.5 -124.5q0 -76 -26.5 -134t-75.5 -97q31 -18 60.5 -43t52 -57.5t34.5 -77.5t12 -105q0 -82 -25.5 -153.5t-80.5 -125t-142.5 -84t-207.5 -30.5 h-666q-4 39 -6 77t-2 77zM504 305h164q51 0 76.5 27.5t25.5 66.5q0 37 -25.5 65t-76.5 28h-164v-187zM504 782h137q41 0 61.5 22.5t20.5 55.5q0 27 -19.5 52.5t-62.5 25.5h-137v-156z" />
<glyph unicode="C" horiz-adv-x="1171" d="M31 616q0 150 40 270t111.5 206t173 132t224.5 46q102 0 158.5 -22.5t86.5 -43.5v35q39 4 78 5t78 1t78 -1t78 -5v-582l-95 -4q-47 -2 -92 -2q-47 0 -93 2l-91 4v138q0 70 -30.5 108.5t-92.5 38.5q-180 0 -180 -299q0 -86 18.5 -143.5t56 -93t91 -52t123.5 -16.5 q74 0 134 14.5t108 36t82 44t52 38.5v-405q-16 -10 -50 -25.5t-89 -31t-131 -28t-178 -12.5q-319 0 -484 170t-165 477z" />
<glyph unicode="D" horiz-adv-x="1308" d="M35 154q0 39 2 75.5t6 75.5h78v629h-78q-4 39 -6 76t-2 75q0 39 2 77t6 77h627q147 0 260.5 -47t191.5 -130t117 -194.5t39 -236.5q0 -92 -26.5 -202t-96.5 -206t-186.5 -159.5t-294.5 -63.5h-631q-4 39 -6 77t-2 77zM535 319h69q113 0 177.5 74t64.5 232q0 92 -20.5 149 t-55.5 89t-79 44.5t-89 12.5h-67v-601z" />
<glyph unicode="E" horiz-adv-x="1157" d="M35 154q0 39 2 75.5t6 75.5h78v629h-78q-4 39 -6 76t-2 75q0 39 2 77t6 77h1069v-379q-47 -4 -92 -5t-92 -1q-45 0 -91 1t-92 5v72h-210v-141h403q4 -41 5 -82t1 -80q0 -41 -1 -81t-5 -79h-403v-152h219v78q82 6 166 6q51 0 101 -2l101 -4v-395h-1079q-4 39 -6 77t-2 77z " />
<glyph unicode="F" horiz-adv-x="1128" d="M35 154q0 39 2 75.5t6 75.5h78v629h-78q-4 39 -6 76t-2 75q0 39 2 77t6 77h1053v-395q-47 -4 -93.5 -6t-91.5 -2q-47 0 -92 2t-92 6v82h-192v-156l401 -2q6 -72 6 -145q0 -45 -2 -89.5t-6 -89.5h-399v-139h151q4 -39 6 -75.5t2 -75.5t-2 -77t-6 -77h-643q-4 39 -6 77 t-2 77z" />
<glyph unicode="G" horiz-adv-x="1284" d="M31 618q0 145 41 266.5t116.5 206.5t181 132t238.5 47q72 0 146.5 -18.5t122.5 -49.5v37q78 6 157 6q72 0 144 -6v-473q-47 -4 -94.5 -6t-92.5 -2q-47 0 -93 2t-93 6v63q0 49 -35 83t-100 34q-49 0 -88 -24.5t-66 -67.5t-40 -102.5t-13 -130.5q0 -92 19.5 -153.5 t52 -100.5t74.5 -55.5t85 -16.5q33 0 61.5 4t30.5 6v98h-69l-4 75q-2 36 -2 73t2 74l4 75h540q4 -39 6.5 -75.5t2.5 -73.5t-2 -73t-7 -75h-57v-319q-14 -8 -57 -26.5t-110.5 -38t-158 -35t-198.5 -15.5q-170 0 -291 49.5t-201 136.5t-116.5 205.5t-36.5 257.5z" />
<glyph unicode="H" horiz-adv-x="1327" d="M35 154q0 39 2 75.5t6 75.5h78v629h-78q-4 39 -6 76t-2 75q0 39 2 77t6 77h551q4 -39 6 -77t2 -77t-2 -75.5t-6 -75.5h-84v-135h309v135h-84q-4 39 -6 76t-2 75q0 39 2 77t6 77h549q4 -39 6 -77t2 -77t-2 -75.5t-6 -75.5h-78v-629h78q4 -39 6 -75.5t2 -75.5t-2 -77 t-6 -77h-549q-4 39 -6 77t-2 77t2 75.5t6 75.5h84v180h-309v-180h84q4 -39 6 -75.5t2 -75.5t-2 -77t-6 -77h-551q-4 39 -6 77t-2 77z" />
<glyph unicode="I" horiz-adv-x="653" d="M35 154q0 39 2 75.5t6 75.5h78v629h-78q-4 39 -6 76t-2 75q0 39 2 77t6 77h569l4 -77q2 -38 2 -77t-2 -75l-4 -76h-77v-629h77l4 -76q2 -37 2 -75q0 -39 -2 -77l-4 -77h-569q-4 39 -6 77t-2 77z" />
<glyph unicode="J" horiz-adv-x="937" d="M35 53v363q23 -16 53.5 -30.5t65 -26t71.5 -17.5t72 -6q29 0 53.5 5t42 21.5t26.5 44t9 68.5v459h-125q-4 39 -6 76t-2 75q0 39 2 77t6 77h592q4 -39 6 -77t2 -77t-2 -75.5t-6 -75.5h-78v-518q0 -121 -29.5 -203t-85 -134t-135.5 -74.5t-178 -22.5q-106 0 -199.5 21 t-154.5 50z" />
<glyph unicode="K" horiz-adv-x="1273" d="M35 154q0 39 2 75.5t6 75.5h78v629h-78q-4 39 -6 76t-2 75q0 39 2 77t6 77h512l4 -73q2 -36 2 -70q0 -37 -2 -74l-4 -72h-47v-170l201 170h-54l-4 72q-2 37 -2 74q0 35 2 70l4 73h559q4 -39 6.5 -77t2.5 -77t-2 -75.5t-7 -75.5h-96l-239 -201l268 -428h86l4 -76 q2 -37 2 -75q0 -39 -2 -77l-4 -77h-395l-273 471l-57 -47v-119h72q4 -39 5 -75.5t1 -75.5t-1 -77t-5 -77h-537q-4 39 -6 77t-2 77z" />
<glyph unicode="L" horiz-adv-x="1095" d="M35 154q0 39 2 75.5t6 75.5h78v629h-78q-4 39 -6 76t-2 75q0 39 2 77t6 77h563q4 -39 6 -77t2 -77t-2 -75.5t-6 -75.5h-96v-623h207v197q43 4 86 5t86 1q45 0 86 -1t86 -5v-508h-1018q-4 39 -6 77t-2 77z" />
<glyph unicode="M" horiz-adv-x="1585" d="M35 154q0 39 2 75.5t6 75.5h78v629h-78q-4 39 -6 76t-2 75q0 39 2 77t6 77h537l213 -686l213 686h538l4 -77q2 -38 2 -77t-2 -75l-4 -76h-80v-629h80l4 -76q2 -37 2 -75q0 -39 -2 -77l-4 -77h-459v659l-170 -634h-260l-170 634v-659h-442q-4 39 -6 77t-2 77z" />
<glyph unicode="N" horiz-adv-x="1290" d="M35 154q0 39 2 75.5t6 75.5h78v629h-78q-4 39 -6 76t-2 75q0 39 2 77t6 77h451l294 -584v279h-53l-4 76q-2 37 -2 75q0 39 2 77l4 77h514q4 -39 5 -77t1 -77t-1 -75.5t-5 -75.5h-78v-934h-362l-305 588v-283h53q4 -39 6 -75.5t2 -75.5t-2 -77t-6 -77h-514q-4 39 -6 77 t-2 77z" />
<glyph unicode="O" horiz-adv-x="1345" d="M31 618q0 119 32.5 237t107.5 209t199 148.5t306 57.5q178 0 301 -57.5t197.5 -148.5t107.5 -209t33 -237t-33 -235.5t-107.5 -207.5t-197.5 -148.5t-301 -57.5q-182 0 -306 57.5t-199 148.5t-107.5 207.5t-32.5 235.5zM463 618q0 -158 56 -239.5t157 -81.5 q96 0 152.5 82t56.5 239q0 160 -56.5 242t-152.5 82q-100 0 -156.5 -82t-56.5 -242z" />
<glyph unicode="P" horiz-adv-x="1118" d="M35 154q0 39 2 75.5t6 75.5h78v629h-78q-4 39 -6 76t-2 75q0 39 2 77t6 77h651q100 0 179 -30.5t132.5 -84t81 -125t27.5 -153.5q0 -72 -21.5 -143.5t-70.5 -130t-129 -94.5t-199 -36h-190v-137h160l4 -76q2 -37 2 -75q0 -39 -2 -77l-4 -77h-621q-4 39 -6 77t-2 77z M504 741h131q41 0 64.5 27t23.5 72q0 41 -23.5 69.5t-64.5 28.5h-131v-197z" />
<glyph unicode="Q" horiz-adv-x="1345" d="M31 618q0 119 32.5 237t107.5 209t199 148.5t306 57.5q178 0 301 -57.5t197.5 -148.5t107.5 -209t33 -237q0 -100 -22.5 -196t-75 -178t-135.5 -144.5t-201 -91.5q25 -12 58.5 -19t76.5 -7q59 0 105 7t82 19t61.5 24.5t40.5 20.5v-299q-70 -23 -156 -39t-195 -16 q-100 0 -188 18.5t-162 59.5t-131 104.5t-92 153.5q-96 39 -162.5 100.5t-108.5 139t-60.5 165.5t-18.5 178zM463 618q0 -170 56 -253.5t157 -83.5q96 0 152.5 84t56.5 253q0 160 -56.5 242t-152.5 82q-100 0 -156.5 -82t-56.5 -242z" />
<glyph unicode="R" horiz-adv-x="1247" d="M35 154q0 39 2 75.5t6 75.5h78v629h-78q-4 39 -6 76t-2 75q0 39 2 77t6 77h680q98 0 177 -31.5t133 -86t84 -126t30 -153.5q0 -35 -8.5 -78t-26.5 -88t-50 -88t-77 -74l111 -209h108q4 -39 6 -75.5t2 -75.5t-2 -77t-6 -77h-409l-209 444h-82v-139h76q4 -39 5 -75.5 t1 -75.5t-1 -77t-5 -77h-537q-4 39 -6 77t-2 77zM504 741h155q45 0 71 27t26 72t-25.5 71.5t-66.5 26.5h-160v-197z" />
<glyph unicode="S" horiz-adv-x="1136" d="M35 0v449q45 4 90 5t90 1q43 0 89 -1t91 -5v-33q0 -51 57.5 -86t161.5 -35q57 0 83 17.5t26 45.5q0 55 -76 76l-321 82q-145 39 -216 127t-71 225q0 102 40 178t104.5 124.5t146.5 72t164 23.5q96 0 164.5 -18.5t111.5 -45.5v37q39 4 77 5t79 1q39 0 77.5 -1t77.5 -5 v-403q-45 -4 -91 -6.5t-89 -2.5q-45 0 -90 2t-88 7v18q0 41 -44 71.5t-122 30.5q-72 0 -95.5 -21.5t-23.5 -45.5q0 -14 9.5 -26.5t39.5 -20.5l318 -76q106 -27 170.5 -73t99.5 -100t46.5 -113.5t11.5 -114.5q0 -123 -48.5 -199t-119 -119t-153.5 -57.5t-153 -14.5 q-109 0 -179 17.5t-124 44.5v-37q-41 -4 -80.5 -5t-80.5 -1q-39 0 -79 1t-81 5z" />
<glyph unicode="T" horiz-adv-x="1323" d="M35 784v455h1253v-455q-43 -4 -84 -6t-82 -2t-82 2t-86 6v150h-86v-629h99q4 -39 6 -75.5t2 -75.5t-2 -77t-6 -77h-611l-4 77q-2 38 -2 77t2 75l4 76h99v629h-86v-150q-43 -4 -84 -6t-82 -2t-82 2t-86 6z" />
<glyph unicode="U" horiz-adv-x="1341" d="M35 1085q0 39 2 77t6 77h586q4 -39 5 -77t1 -77t-1 -75.5t-5 -75.5h-94v-485q0 -43 11 -74t30.5 -48.5t44 -24.5t51.5 -7q25 0 49 7t43.5 24.5t32 48.5t12.5 74v485h-94q-4 39 -6 76t-2 75q0 39 2 77t6 77h585q4 -39 5.5 -77t1.5 -77t-1 -75.5t-6 -75.5h-77v-496 q0 -225 -144.5 -347t-406.5 -122q-264 0 -407.5 120t-143.5 349v496h-78q-4 39 -6 75.5t-2 75.5z" />
<glyph unicode="V" horiz-adv-x="1390" d="M35 1085q0 39 2 77t6 77h584q4 -39 6 -77t2 -75q0 -39 -2 -75.5t-6 -73.5h-64l137 -483l146 483h-64q-4 37 -6 74t-2 75q0 37 2 75t6 77h568q4 -39 5 -77t1 -77t-1 -75.5t-5 -75.5h-93l-346 -934h-446l-330 934h-92q-4 39 -6 75.5t-2 75.5z" />
<glyph unicode="W" horiz-adv-x="1832" d="M35 1085q0 39 2 77t6 77h551q4 -39 6 -77t2 -75q0 -39 -2 -75.5t-6 -73.5h-53l67 -381l148 682h340l137 -684l72 383h-52q-4 37 -6 74t-2 75q0 37 2 75t6 77h539l4 -77q2 -38 2 -77t-2 -75l-4 -76h-76l-254 -934h-409l-140 668q-18 -72 -37 -160l-40 -179l-38 -177 l-32 -152h-410l-233 934h-80q-4 39 -6 75.5t-2 75.5z" />
<glyph unicode="X" horiz-adv-x="1298" d="M35 154q0 39 2 75.5t6 75.5h78l282 309l-276 320h-68q-4 39 -5 76t-1 75q0 39 1 77t5 77h545l4 -71q2 -36 2 -72q0 -35 -2 -71l-4 -71h-51l111 -125l112 125h-51l-4 71q-2 36 -2 71q0 37 2 72l4 71h514q4 -39 5 -77t1 -77t-1 -75.5t-5 -75.5h-68l-276 -305l283 -324h77 q4 -39 6.5 -75.5t2.5 -75.5t-2 -77t-7 -77h-561q-4 35 -6 70.5t-2 72.5q0 35 2 71t6 71h47l-106 129l-109 -129h49l5 -71q2 -36 2 -71q0 -37 -2 -72l-5 -71h-532q-4 39 -6 77t-2 77z" />
<glyph unicode="Y" horiz-adv-x="1337" d="M35 1085q0 39 2 77t6 77h582l4 -74q2 -37 2 -73q0 -37 -2 -73l-4 -75h-60l113 -205l123 205h-58q-4 39 -6 75t-2 73t2 73.5t6 73.5h551q4 -39 6.5 -77t2.5 -77t-2.5 -75.5t-6.5 -75.5h-84l-336 -457v-172h101l4 -76q2 -37 2 -75q0 -39 -2 -77l-4 -77h-610q-4 39 -6.5 77 t-2.5 77t2 75.5t7 75.5h98v172l-336 457h-84q-4 39 -6 75.5t-2 75.5z" />
<glyph unicode="Z" horiz-adv-x="1175" d="M35 0v295l588 631h-217v-127q-45 -4 -87.5 -5t-82.5 -1q-43 0 -85 1t-85 5v440h1048v-295l-582 -625h265v156q43 4 86 6t86 2q45 0 86 -2t86 -6v-475h-1106z" />
<glyph unicode="[" horiz-adv-x="624" d="M35 -285v1573h549l4 -80q2 -41 2 -80q0 -37 -2 -72l-4 -73h-174v-963h174l4 -76q2 -38 2 -77t-2 -76l-4 -76h-549z" />
<glyph unicode="\" horiz-adv-x="770" d="M8 1239h326l430 -1239h-326z" />
<glyph unicode="]" horiz-adv-x="624" d="M35 -133q0 39 2 77t6 76h172v963h-172q-4 37 -6 73t-2 72q0 39 2 80t6 80h547v-1573h-547q-4 39 -6 76t-2 76z" />
<glyph unicode="^" horiz-adv-x="1052" d="M16 381l326 725h373l321 -725h-383l-129 334l-127 -334h-381z" />
<glyph unicode="_" horiz-adv-x="849" d="M0 0v274h850v-274h-850z" />
<glyph unicode="`" horiz-adv-x="563" d="M16 1159h381l150 -176h-283z" />
<glyph unicode="a" horiz-adv-x="1036" d="M31 270q0 90 35.5 148.5t97 94.5t148.5 54.5t190 26.5l39 2v12q0 39 -22.5 57.5t-76.5 18.5q-70 0 -147.5 -20.5t-188.5 -67.5v262q78 35 175.5 61.5t230.5 26.5q53 0 123 -9t133 -43t106.5 -100.5t43.5 -179.5v-329h77q4 -35 6.5 -71t2.5 -71q0 -37 -2.5 -72.5 t-6.5 -70.5h-420l-8 66q-14 -12 -35.5 -27.5t-50 -29t-66.5 -23t-87 -9.5q-61 0 -114.5 16.5t-94.5 52.5t-64.5 91t-23.5 133zM395 295q0 -31 16.5 -49.5t51.5 -18.5q39 0 60.5 20.5t21.5 61.5v86l-39 -6q-66 -8 -88.5 -34.5t-22.5 -59.5z" />
<glyph unicode="b" horiz-adv-x="1093" d="M35 143q0 35 1 71t5 71h78v719h-78q-4 35 -5 70.5t-1 70.5q0 37 1 72.5t5 70.5h465v-403q29 31 83 45t101 14q84 0 152.5 -28.5t118 -85t77 -145.5t27.5 -210q0 -100 -19.5 -190t-64.5 -158t-116.5 -109t-176.5 -41q-59 0 -119.5 20.5t-95.5 68.5l-8 -66h-424 q-4 35 -5 70.5t-1 72.5zM496 459q0 -106 22.5 -150.5t65.5 -44.5t66.5 44t23.5 151q0 109 -23.5 152.5t-66.5 43.5t-65.5 -43.5t-22.5 -152.5z" />
<glyph unicode="c" horiz-adv-x="919" d="M29 465q0 111 28.5 200t79.5 151.5t126 96t169 33.5q76 0 130 -20.5t73 -40.5v39l61 4q31 2 64 2q31 0 62 -2l63 -4v-410q-39 -4 -76 -6t-76 -2t-75.5 2t-75.5 6v70q0 98 -70 98q-45 0 -68.5 -48t-23.5 -142q0 -63 16.5 -104.5t43 -66t61 -35t75.5 -10.5q68 0 140.5 23 t128.5 55v-301q-20 -14 -55 -26.5t-81.5 -24.5t-100.5 -19.5t-109 -7.5q-125 0 -221.5 35t-160 99.5t-96 154.5t-32.5 201z" />
<glyph unicode="d" horiz-adv-x="1089" d="M29 475q0 121 27.5 210t77.5 145.5t119 85t153 28.5q68 0 113.5 -20.5t66.5 -38.5v119h-80l-4 70q-2 36 -2 71q0 37 2 73l4 70h465v-1003h78q4 -35 5 -71t1 -71q0 -37 -1 -72.5t-5 -70.5h-424l-11 66q-27 -31 -77 -60t-131 -29q-106 0 -178 41t-116 109t-63.5 158 t-19.5 190zM416 459q0 -106 22.5 -150.5t65.5 -44.5t66.5 44t23.5 151q0 109 -23.5 152.5t-66.5 43.5t-65.5 -43.5t-22.5 -152.5z" />
<glyph unicode="e" horiz-adv-x="968" d="M29 465q0 92 27.5 179t83 153.5t144.5 107.5t212 41q129 0 215 -41t137 -105.5t72.5 -143t21.5 -156.5v-131h-524q16 -51 64 -81t143 -30q84 0 160.5 13.5t119.5 23.5v-272q-90 -25 -175 -36.5t-187 -11.5q-137 0 -233.5 40t-160 105.5t-92 155t-28.5 189.5zM406 569h186 q0 141 -90 142q-90 -1 -96 -142z" />
<glyph unicode="f" horiz-adv-x="694" d="M35 780q0 35 1 71t5 73h94v53q0 166 100.5 251t272.5 85q84 0 146.5 -12.5l90.5 -18.5v-268q-18 6 -53 15t-74 9t-66.5 -19.5t-27.5 -68.5v-26h131l4 -73q2 -36 3 -71q0 -35 -3 -70l-4 -73h-131v-352h105q4 -35 5 -71t1 -71q0 -37 -1 -72.5t-5 -70.5h-572l-4 71 q-2 36 -2 72q0 35 2 71l4 71h78v352h-94q-4 37 -5 72.5t-1 70.5z" />
<glyph unicode="g" horiz-adv-x="1093" d="M29 500q0 119 27.5 202.5t75.5 138t114.5 80t142.5 25.5q86 0 139.5 -23.5t92.5 -62.5l8 64h426l4 -73q2 -36 2 -71t-2 -70l-4 -73h-80v-508q0 -119 -38 -202t-104.5 -134t-157.5 -74.5t-200 -23.5q-117 0 -213 14.5t-174 32.5v270q68 -25 139.5 -43t167.5 -18q59 0 98 9 t60.5 25.5t29 38t7.5 44.5v47q-23 -18 -69 -40t-132 -22q-184 0 -272 115t-88 332zM422 502q0 -86 22.5 -126t63.5 -40q43 0 66.5 39t23.5 125t-23.5 124t-66.5 38q-41 0 -63.5 -37t-22.5 -123z" />
<glyph unicode="h" d="M35 143q0 35 1 71t5 71h78v719h-78q-4 35 -5 70.5t-1 70.5q0 37 1 72.5t5 70.5h465v-395q33 20 82 36.5t117 16.5t124 -18.5t97 -55t64.5 -91t23.5 -126.5v-370h78q4 -35 5 -71t1 -71q0 -37 -1 -72.5t-5 -70.5h-465v563q0 33 -11.5 53.5t-37.5 20.5q-10 0 -22.5 -3 t-24 -16.5t-18.5 -37t-7 -64.5v-516h-465q-4 35 -5 70.5t-1 72.5z" />
<glyph unicode="i" horiz-adv-x="622" d="M35 143q0 35 1 71t5 71h78v352h-78q-4 37 -5 72.5t-1 70.5t1 71t5 73h465v-639h78l4 -71q2 -36 2 -71q0 -37 -2 -72l-4 -71h-543q-4 35 -5 70.5t-1 72.5zM70 1155q0 76 52 117t169 41t170 -41t53 -117q0 -78 -53 -118t-170 -40q-221 0 -221 158z" />
<glyph unicode="j" horiz-adv-x="546" d="M-68 -23q12 -2 43 -9t64 -7q41 0 60.5 17.5t19.5 60.5v598h-78q-4 37 -5 72.5t-1 70.5t1 71t5 73h465v-908q0 -160 -86 -240.5t-256 -80.5q-57 0 -119.5 5t-112.5 17v260zM70 1155q0 76 52 117t169 41t170 -41t53 -117q0 -78 -53 -118t-170 -40q-221 0 -221 158z" />
<glyph unicode="k" horiz-adv-x="1148" d="M35 143q0 31 1 71t5 71h78v719h-78q-4 31 -5 70.5t-1 70.5q0 33 1 71.5t5 71.5h465v-737l151 121h-63q-2 35 -4 65.5t-2 59.5t2 59.5t4 67.5h508q4 -37 5 -73t1 -71t-1 -70.5t-5 -72.5h-78l-129 -98l137 -254h78q4 -35 5 -71t1 -71q0 -37 -1 -72.5t-5 -70.5h-373 l-155 299l-76 -57v-242h-465q-4 31 -5 70.5t-1 72.5z" />
<glyph unicode="l" horiz-adv-x="622" d="M35 143q0 35 1 71t5 71h78v719h-78q-4 35 -5 70.5t-1 70.5q0 37 1 72.5t5 70.5h465v-1003h78l4 -71q2 -36 2 -71q0 -37 -2 -72l-4 -71h-543q-4 35 -5 70.5t-1 72.5z" />
<glyph unicode="m" horiz-adv-x="1638" d="M35 143q0 35 1 71t5 71h78v352h-78q-4 37 -5 72.5t-1 70.5t1 71t5 73h412l4 -70q16 14 38.5 30.5t54.5 30t72 22.5t89 9q63 0 109 -15.5t76 -34.5t43 -34.5t15 -17.5q33 37 100.5 69.5t164.5 32.5q66 0 121 -18.5t95 -55t63.5 -91t23.5 -126.5v-370h77q4 -35 5.5 -71 t1.5 -71q0 -37 -1 -72.5t-6 -70.5h-464v563q0 33 -10.5 53.5t-39.5 20.5q-10 0 -22 -3t-23.5 -16.5t-18.5 -37t-7 -64.5v-516h-387v563q0 33 -11.5 53.5t-37.5 20.5q-10 0 -22.5 -3t-24 -16.5t-18.5 -37t-7 -64.5v-516h-465q-4 35 -5 70.5t-1 72.5z" />
<glyph unicode="n" d="M35 143q0 35 1 71t5 71h78v352h-78q-4 37 -5 72.5t-1 70.5t1 71t5 73h412l4 -70q16 14 38.5 30.5t54.5 30t72 22.5t89 9q63 0 118.5 -18.5t96.5 -55t64.5 -91t23.5 -126.5v-370h78q4 -35 5 -71t1 -71q0 -37 -1 -72.5t-5 -70.5h-465v563q0 33 -11.5 53.5t-37.5 20.5 q-10 0 -22.5 -3t-24 -16.5t-18.5 -37t-7 -64.5v-516h-465q-4 35 -5 70.5t-1 72.5z" />
<glyph unicode="o" horiz-adv-x="1034" d="M29 463q0 102 29.5 191t90 154.5t152.5 101.5t215 36q125 0 217 -36t152.5 -101.5t90.5 -154.5t30 -191q0 -104 -30 -193.5t-90.5 -154t-152.5 -102.5t-217 -38q-123 0 -215 38t-152.5 102.5t-90 154t-29.5 193.5zM420 463q0 -119 26.5 -165t69.5 -46q47 0 72.5 46 t25.5 165q0 115 -25.5 161t-72.5 46q-43 0 -69.5 -46t-26.5 -161z" />
<glyph unicode="p" horiz-adv-x="1093" d="M35 -156q0 35 1 67t5 64h78v662h-78q-6 68 -6 135q0 74 6 152h424l10 -64q16 16 38 31.5t48.5 28t62 19.5t81.5 7q100 0 169.5 -36t111.5 -96t60.5 -140t18.5 -166q0 -123 -26.5 -210t-75 -144.5t-119 -84t-152.5 -26.5q-63 0 -115.5 17.5t-70.5 39.5v-125h96l4 -64 q2 -32 2 -67q0 -33 -2 -65l-4 -64h-561q-4 31 -5 63.5t-1 65.5zM496 496q0 -90 22.5 -128t65.5 -38t66.5 38t23.5 128t-23.5 129t-66.5 39t-65.5 -39t-22.5 -129z" />
<glyph unicode="q" horiz-adv-x="1093" d="M29 508q0 86 19.5 166t62.5 140t111.5 96t166.5 36q45 0 81 -7t63.5 -19.5t48 -27.5t39.5 -32l8 64h426l4 -73q2 -36 2 -71t-2 -70l-4 -73h-80v-662h80l4 -64q2 -32 2 -67q0 -33 -2 -65l-4 -64h-561q-4 31 -6.5 64t-2.5 65q0 35 2 67t7 64h96v125q-20 -23 -72.5 -40 t-114.5 -17q-84 0 -152.5 26.5t-117.5 84t-76.5 144.5t-27.5 210zM422 496q0 -90 22.5 -128t67.5 -38q43 0 64.5 38t21.5 128t-21.5 129t-64.5 39q-45 0 -67.5 -39t-22.5 -129z" />
<glyph unicode="r" horiz-adv-x="825" d="M35 129q0 39 2 78t6 78h78v352h-78q-4 37 -6 72.5t-2 70.5t2 71t6 73h422l6 -82q35 45 81 68.5t95 23.5q39 0 75 -6t75 -25l-37 -307q-20 10 -53 20.5t-72 10.5q-59 0 -94 -35t-35 -105v-202h96l4 -71q2 -36 2 -71q0 -37 -2 -72l-4 -71h-563q-4 63 -4 129z" />
<glyph unicode="s" horiz-adv-x="956" d="M35 0v311q33 4 67.5 5t71.5 1q35 0 70 -1t69 -5v-18q0 -39 36 -61.5t102 -22.5q55 0 74.5 13.5t19.5 31.5q0 39 -58 51l-172 37q-57 12 -107 31.5t-88 54.5t-60.5 86t-22.5 125q0 84 33.5 141.5t84 93t113 52t117.5 16.5q82 0 135 -15.5t84 -33.5v31l69 4q34 2 68 2 q33 0 68 -2l68 -4v-291q-35 -4 -71 -6t-73 -2q-39 0 -74.5 2t-70.5 6v20q0 23 -24.5 45.5t-84.5 22.5q-45 0 -64.5 -13.5t-19.5 -35.5q0 -16 19.5 -28.5t48.5 -18.5l155 -33q63 -14 120 -35.5t96.5 -56.5t64.5 -88.5t25 -130.5q0 -86 -32 -142.5t-84 -91.5t-117.5 -50 t-131.5 -15q-84 0 -141.5 14t-93.5 35l-2 -31q-37 -4 -73 -5t-73 -1t-72.5 1t-68.5 5z" />
<glyph unicode="t" horiz-adv-x="759" d="M35 780q0 35 1 71t5 73h104v186l390 113v-299h186q4 -37 5 -73t1 -71t-1 -70.5t-5 -72.5h-186v-275q0 -45 20 -60t49 -15q39 0 72 9t51 19v-284q-53 -20 -122.5 -30.5t-133.5 -10.5q-174 0 -250 81t-76 224v342h-104q-4 37 -5 72.5t-1 70.5z" />
<glyph unicode="u" d="M35 780q0 35 1 71t5 73h465v-564q0 -35 10 -55t39 -20q10 0 22.5 4t23.5 16t18.5 36t7.5 65v518h387v-639h78q4 -35 5 -71t1 -71q0 -37 -1 -72.5t-5 -70.5h-412l-4 68l-39 -29q-23 -16 -54.5 -29.5t-72.5 -24t-88 -10.5q-66 0 -121 16.5t-95 52.5t-63.5 91t-23.5 131v371 h-78q-4 37 -5 72.5t-1 70.5z" />
<glyph unicode="v" horiz-adv-x="1167" d="M35 780q0 35 1 71t5 73h512l4 -71q2 -36 2 -69q0 -35 -2 -69l-4 -70h-39l82 -260l84 260h-39q-4 35 -5 70t-1 69q0 33 1 69t5 71h485q4 -37 6.5 -73t2.5 -71t-2.5 -70.5t-6.5 -72.5h-77l-263 -637h-403l-264 637h-78q-4 37 -5 72.5t-1 70.5z" />
<glyph unicode="w" horiz-adv-x="1638" d="M35 780q0 35 1 71t5 73h489q4 -35 5.5 -71t1.5 -69q0 -35 -1 -69.5t-6 -69.5h-43l54 -209l121 488h323l131 -490l53 211h-43l-4 70q-2 35 -2 69q0 33 2 69l4 71h473q4 -37 5.5 -73t1.5 -71t-1 -70.5t-6 -72.5h-77l-205 -637h-381l-119 434l-110 -434h-381l-207 637h-78 q-4 37 -5 72.5t-1 70.5z" />
<glyph unicode="x" horiz-adv-x="1107" d="M35 143q0 35 1 71t5 71h65l195 166l-184 186h-58q-4 37 -5 72.5t-1 70.5t1 71t5 73h488q4 -29 6 -57.5t2 -57.5t-2 -56.5t-6 -56.5h-47l86 -100l98 100h-49l-4 57q-2 28 -2 56q0 29 2 57l4 58h416q4 -37 5 -73t1 -71t-1 -70.5t-5 -72.5h-58l-184 -162l195 -190h65 q4 -35 5 -71t1 -71q0 -37 -1 -72.5t-5 -70.5h-500q-4 29 -5 56.5t-1 56.5t1 56.5t5 55.5h45l-86 101l-94 -101h45q4 -29 5 -56.5t1 -55.5q0 -29 -1 -56.5t-5 -56.5h-438q-4 35 -5 70.5t-1 72.5z" />
<glyph unicode="y" horiz-adv-x="1167" d="M35 780q0 35 1 71t5 73h512l4 -71q2 -36 2 -69q0 -35 -2 -69l-4 -70h-39l90 -246l76 246h-39q-4 35 -5 70t-1 69q0 33 1 69t5 71h485q4 -37 6.5 -73t2.5 -71t-2.5 -70.5t-6.5 -72.5h-77l-275 -660q-43 -102 -97 -159.5t-110.5 -85t-111 -32.5t-97.5 -5q-86 0 -144 10 t-103 21v268q33 -14 79 -25.5t91 -11.5t76.5 15.5t50.5 68.5l-289 596h-78q-4 37 -5 72.5t-1 70.5z" />
<glyph unicode="z" horiz-adv-x="931" d="M35 0v295l465 405h-150v-65l-77 -4q-38 -2 -76 -2q-39 0 -76 2l-76 4v289h840v-295l-449 -393h156v77q68 4 139 4q43 0 84 -1t84 -5v-311h-864z" />
<glyph unicode="{" horiz-adv-x="716" d="M35 348v307q57 0 84.5 21.5t27.5 75.5v254q0 82 25 136t64.5 87t89 46t100.5 13h250l4 -76q2 -37 2 -77q0 -39 -2 -76l-4 -76h-103q-35 0 -47 -15.5t-12 -47.5v-236q0 -63 -21.5 -106t-80.5 -76q59 -33 80.5 -77t21.5 -108v-233q0 -33 12.5 -48.5t46.5 -15.5h103l4 -76 q2 -38 2 -77t-2 -76l-4 -76h-250q-51 0 -100.5 13.5t-89 45t-64.5 86t-25 138.5v252q0 53 -27.5 74.5t-84.5 23.5z" />
<glyph unicode="|" horiz-adv-x="395" d="M35 -285v1573h325v-1573h-325z" />
<glyph unicode="}" horiz-adv-x="716" d="M35 -133q0 39 2 77t6 76h102q33 0 45.5 15.5t12.5 48.5v233q0 63 21.5 107.5t80.5 77.5q-59 33 -80.5 76t-21.5 106v236q0 33 -12.5 48t-45.5 15h-102q-4 39 -6 76t-2 76q0 41 2 77.5t6 75.5h248q51 0 100 -13t89 -46t64.5 -87.5t24.5 -135.5v-254q0 -53 28 -75t85 -22 v-307q-57 -2 -85 -23.5t-28 -74.5v-252q0 -84 -24.5 -138.5t-64.5 -86t-89 -45t-100 -13.5h-248q-4 39 -6 76t-2 76z" />
<glyph unicode="~" horiz-adv-x="1165" d="M16 371q2 115 29 199.5t69 141t99 84t121 27.5q45 0 81 -5t64.5 -13t51.5 -18l49 -19l77 -33q18 -8 38 -13t40 -5q23 0 47.5 27.5t30.5 99.5h336q-2 -117 -27.5 -202t-68.5 -141.5t-100.5 -83t-118.5 -26.5q-47 0 -83 5t-65 12.5t-52 16.5l-48 19l-78 33 q-18 8 -36.5 13.5t-39.5 5.5q-25 0 -49.5 -27t-28.5 -98h-338z" />
<glyph unicode="&#xa1;" horiz-adv-x="509" d="M35 -285l47 740h348l45 -740h-440zM39 735q0 47 3 93t5 96h418l4 -96q2 -46 2 -93q0 -49 -2 -95l-4 -95h-418q-2 49 -5 95t-3 95z" />
<glyph unicode="&#xa2;" horiz-adv-x="894" d="M31 559q0 109 27.5 193t76.5 143t115.5 92t144.5 37v113h217v-121q47 4 113 4q39 0 75 -2t64 -4v-428l-69 -4q-35 -2 -70 -2q-33 0 -69 2l-70 4v94q0 49 -30 72.5t-69 23.5q-59 0 -98 -48t-39 -150q0 -115 59.5 -164t155.5 -49q49 0 95.5 10t85 25.5t69.5 32t45 30.5 v-305q-23 -12 -84 -34t-164 -32v-117h-217v119q-174 31 -269 147.5t-95 317.5z" />
<glyph unicode="&#xa3;" horiz-adv-x="1114" d="M35 0v215q39 25 72.5 50.5t60.5 56t42 68.5t15 89v21h-157l-5 64q-2 32 -2 67t2.5 65.5t4.5 65.5h114q-4 16 -11 58t-7 91q0 61 23.5 120t75.5 106t135 74.5t200 27.5q78 0 148.5 -10t128 -23.5t98.5 -28t61 -22.5v-330q-90 51 -174 82t-176 31q-53 0 -89 -20.5 t-36 -73.5q0 -25 3 -44.5t9 -37.5h312q4 -61 4 -125q0 -70 -4 -137h-273v-25q0 -59 -23.5 -108.5t-78.5 -85.5h201v100q47 4 93 5t93 1q45 0 91 -1t93 -5v-381h-1044z" />
<glyph unicode="&#xa4;" horiz-adv-x="1091" d="M35 352l125 123q-27 68 -27 150q0 39 6 75.5t21 71.5l-125 123l239 240l123 -125q74 27 148 26q78 0 149 -28l125 127l238 -240l-125 -125q27 -74 26 -145q0 -76 -26 -150l125 -123l-238 -237l-125 123q-74 -27 -149 -27q-80 0 -148 27l-123 -123zM395 625 q0 -63 44 -107.5t106 -44.5q63 0 107 44t44 108q0 61 -44 105t-107 44q-61 0 -105.5 -44t-44.5 -105z" />
<glyph unicode="&#xa5;" horiz-adv-x="1234" d="M35 1055q0 41 2 77.5t6 75.5h530l5 -72q2 -36 2 -71q0 -37 -2 -73l-5 -72h-63l123 -191l121 191h-62q-4 37 -6 72.5t-2 72.5q0 35 2 70.5t6 72.5h502l4 -75q2 -37 2 -78q0 -39 -2 -76l-4 -76h-86l-111 -153h119v-142h-221l-80 -110h301v-142h-305v-84h98q4 -39 5 -71.5 t1 -65.5q0 -31 -1 -63.5t-5 -71.5h-594q-2 39 -4 71.5t-2 63.5q0 33 2 65.5t4 71.5h101v84h-307v142h301l-76 110h-225v142h127l-109 153h-84q-4 39 -6 76t-2 76z" />
<glyph unicode="&#xa6;" horiz-adv-x="395" d="M35 238h325v-523h-325v523zM35 766v522h325v-522h-325z" />
<glyph unicode="&#xa7;" horiz-adv-x="1101" d="M29 549q0 90 43 153.5t112 102.5q-33 41 -51 86t-18 100q0 72 29.5 131.5t84 101.5t132 65.5t174.5 23.5q78 0 144 -11.5t124.5 -29t106.5 -40t87 -44.5v-322q-43 33 -95 64t-106.5 55.5t-106.5 39.5t-93 15t-57.5 -15t-16.5 -40q0 -20 16.5 -34.5t55.5 -35.5l264 -143 q47 -27 87 -54.5t68.5 -62t45 -79t16.5 -101.5q0 -49 -15.5 -90t-38 -72.5t-50 -56.5t-56.5 -41q33 -37 59.5 -84t26.5 -127q0 -70 -27.5 -126t-80.5 -97t-131 -63.5t-180 -22.5q-80 0 -150 11t-131 29.5t-114.5 44t-102.5 54.5v350q51 -41 113.5 -81t123 -70.5t112.5 -49 t89 -18.5q39 0 50.5 13.5t11.5 33.5q0 41 -64 76l-231 133q-53 31 -100.5 66t-83 74.5t-56 87t-20.5 100.5zM393 586q0 -47 72 -90l211 -129q35 29 35 71q0 45 -72 86l-213 131q-33 -28 -33 -69z" />
<glyph unicode="&#xa8;" horiz-adv-x="727" d="M31 1073q0 45 4 92h250q6 -47 6 -92q0 -49 -6 -90h-250q-4 41 -4 90zM436 1073q0 45 6 92h250q4 -47 4 -92q0 -49 -4 -90h-250q-6 41 -6 90z" />
<glyph unicode="&#xa9;" horiz-adv-x="1368" d="M31 621q0 137 52 255.5t142 204.5t209 135.5t250 49.5q133 0 252 -49.5t208 -135.5t141 -204.5t52 -255.5q0 -141 -52 -260t-141 -206t-208 -136.5t-252 -49.5q-131 0 -250 49.5t-209 136.5t-142 206t-52 260zM225 621q0 -104 35 -191.5t96.5 -151t145.5 -99.5t182 -36 t182 36t145.5 99.5t97.5 150.5t36 192q0 102 -36 188t-97.5 148.5t-145.5 98.5t-182 36t-182 -36t-145.5 -98.5t-96.5 -148.5t-35 -188zM330 612q0 76 22.5 144.5t62.5 120t97 82t127 30.5q59 0 94 -17.5t47 -27.5v25q25 4 45.5 5t38.5 1t39 -1t43 -5v-334q-27 -2 -49.5 -4 t-42.5 -2q-18 0 -41 2l-47 4v86q0 88 -88 88q-66 0 -96.5 -57.5t-30.5 -141.5q0 -53 12 -87t33.5 -54t50.5 -27.5t64 -7.5q47 0 86 10.5t68.5 25.5t48 30.5t26.5 23.5v-219q-41 -25 -112.5 -46t-149.5 -21q-84 0 -149.5 27.5t-109.5 77.5t-66.5 118.5t-22.5 150.5z" />
<glyph unicode="&#xaa;" horiz-adv-x="739" d="M35 393v217h670v-217h-670zM35 858q0 37 11 67.5t39 55.5t74 39t113 20l140 11v4q0 31 -23.5 47t-89.5 16t-115 -12t-92 -29v148q53 18 118.5 31.5t156.5 13.5q131 0 203.5 -56.5t72.5 -171.5v-217h49q8 -20 10.5 -39.5t2.5 -35.5t-2.5 -35t-10.5 -37h-258l-8 61 q-31 -35 -76 -54t-125 -19q-35 0 -69.5 10t-62 33.5t-43 59.5t-15.5 89zM264 864q0 -25 15.5 -38t50.5 -13t60.5 16.5t25.5 44.5v54l-58 -4q-59 -6 -76.5 -20.5t-17.5 -39.5z" />
<glyph unicode="&#xab;" horiz-adv-x="1183" d="M16 463l195 383h399l-194 -383l194 -383h-399zM573 463l195 383h399l-194 -383l194 -383h-399z" />
<glyph unicode="&#xac;" horiz-adv-x="985" d="M35 604v322h915v-615h-321v293h-594z" />
<glyph unicode="&#xad;" horiz-adv-x="618" d="M16 535q0 41 2 81.5t7 83.5h569q4 -43 6 -84t2 -81q0 -43 -2 -84t-6 -82h-569q-4 41 -6.5 82t-2.5 84z" />
<glyph unicode="&#xae;" horiz-adv-x="1368" d="M31 625q0 137 52 254.5t142 204.5t209 136.5t250 49.5q133 0 252 -49.5t209 -136.5t142 -204.5t52 -254.5q0 -141 -52 -260t-142 -208t-209 -138.5t-252 -49.5q-131 0 -250 49.5t-209 138.5t-142 208t-52 260zM225 625q0 -104 35 -192.5t97.5 -153t146.5 -100.5t180 -36 q98 0 182 36t146.5 100.5t97.5 152.5t35 193q0 100 -35 186t-97.5 149.5t-146.5 99.5t-182 36q-96 0 -180 -36t-146.5 -99.5t-97.5 -149.5t-35 -186zM379 903q0 14 2 33.5t4 44.5h354q57 0 102.5 -18.5t77 -48t49 -71.5t17.5 -87q0 -51 -23.5 -103.5t-72.5 -85.5l65 -149h41 l4 -43q2 -20 2 -35q0 -16 -2 -34.5t-4 -41.5h-215l-94 266h-59v-112h39l4 -43q2 -20 2 -35q0 -16 -2 -34.5t-4 -41.5h-279q-2 23 -4 41.5t-2 34.5q0 14 2 35l4 43h39v407h-41q-2 25 -4 42.5t-2 35.5zM627 684h78q35 0 54 19.5t19 52.5q0 29 -18.5 49t-50.5 20h-82v-141z" />
<glyph unicode="&#xaf;" horiz-adv-x="622" d="M0 985v170h625v-170h-625z" />
<glyph unicode="&#xb0;" horiz-adv-x="681" d="M20 948q0 68 25 127.5t68 102.5t102 67.5t127 24.5t126 -24.5t102 -67.5t69 -102.5t25 -127.5q0 -66 -25 -124t-69 -102t-102 -68.5t-126 -24.5t-127 24.5t-102 68.5t-68 102t-25 124zM240 948q0 -43 30.5 -72.5t71.5 -29.5t71.5 29.5t30.5 72.5q0 45 -30.5 76t-71.5 31 t-71.5 -31t-30.5 -76z" />
<glyph unicode="&#xb1;" horiz-adv-x="985" d="M35 0v328h280v194h-280v328h280v287h357v-287h278v-328h-276v-194h276v-328h-915z" />
<glyph unicode="&#xb2;" horiz-adv-x="768" d="M53 586v69q0 70 30 122t71 90t86 61.5t75 36.5q39 20 53.5 33.5t14.5 25.5q0 31 -57 31q-59 0 -117.5 -33t-114.5 -78v240q51 23 128 47t184 24q61 0 115 -11t95 -35.5t66 -62.5t25 -91q0 -80 -37 -123t-109 -80q-29 -16 -62.5 -31.5t-54.5 -23.5h269v-211h-660z" />
<glyph unicode="&#xb3;" horiz-adv-x="768" d="M37 602v201q25 -8 55.5 -15.5t62 -13.5t64.5 -9t62 -3q53 0 78.5 8t25.5 35q0 23 -25.5 31t-74.5 8h-74q-4 20 -5 33.5t-1 31.5q0 16 1 31.5t5 36.5h63q49 0 67.5 14.5t18.5 32.5q0 20 -17 31.5t-58 11.5q-59 0 -121 -18.5t-107 -42.5v198l46 16q28 9 67 17t92 13t123 5 q82 0 142.5 -15t99.5 -40.5t56 -60.5t17 -74q0 -88 -92 -135q59 -25 89 -59.5t30 -86.5q0 -47 -19.5 -86t-61.5 -67.5t-111.5 -45t-169.5 -16.5q-90 0 -177.5 9.5t-150.5 23.5z" />
<glyph unicode="&#xb4;" horiz-adv-x="563" d="M16 983l150 176h381l-248 -176h-283z" />
<glyph unicode="&#xb5;" d="M35 780q0 35 1 71t5 73h465v-564q0 -35 10 -55t39 -20q10 0 22.5 3t23.5 14t18.5 32.5t7.5 62.5v527h387v-639h78q4 -35 5 -71t1 -71q0 -37 -1 -72.5t-5 -70.5h-412l-4 68q-18 -18 -44 -31.5t-63 -13.5q-33 0 -63 12v-320h-387v922h-78q-4 37 -5 72.5t-1 70.5z" />
<glyph unicode="&#xb6;" horiz-adv-x="1021" d="M16 866q0 98 35 169t94.5 116t141.5 66.5t176 21.5h524v-1524h-280v1276h-125v-1276h-283v807q-63 16 -114.5 49t-89.5 78t-58.5 100.5t-20.5 116.5z" />
<glyph unicode="&#xb7;" horiz-adv-x="405" d="M27 625q0 39 2 76.5t6 76.5h338l4 -77q2 -38 2 -76q0 -39 -2 -78l-4 -78h-338q-4 39 -6 78t-2 78z" />
<glyph unicode="&#xb8;" horiz-adv-x="528" d="M16 -344l43 143q14 -4 55.5 -14t94.5 -10q27 0 51.5 7t24.5 32q0 16 -17.5 27.5t-52.5 11.5q-18 0 -49 -4.5t-53 -16.5l-37 86l26 16q16 10 44 20.5t64 18t85 7.5q66 0 107.5 -17.5t66.5 -45.5t34 -59.5t9 -58.5q0 -86 -68.5 -134t-189.5 -48q-47 0 -88 5t-72 11.5 t-51.5 12.5t-26.5 10z" />
<glyph unicode="&#xb9;" horiz-adv-x="768" d="M125 637v68v61q0 29 4 43h96v207h-96q-4 12 -4 41v63v67q0 32 4 52h420v-430h86q2 -20 3 -51t1 -64q0 -31 -1 -60.5t-3 -47.5h-506q-4 18 -4 51z" />
<glyph unicode="&#xba;" horiz-adv-x="722" d="M35 393v217h655v-217h-655zM35 965q0 66 20.5 121t60.5 96t101.5 64.5t144.5 23.5q82 0 143.5 -23.5t102.5 -64.5t61.5 -96.5t20.5 -120.5q0 -63 -20.5 -118.5t-61.5 -95.5t-102.5 -62.5t-143.5 -22.5q-84 0 -145 22.5t-101 62.5t-60.5 95.5t-20.5 118.5zM274 965 q0 -59 24 -94t64 -35q41 0 65 34.5t24 94.5q0 59 -24 95t-65 36t-64.5 -36t-23.5 -95z" />
<glyph unicode="&#xbb;" horiz-adv-x="1183" d="M16 80l195 383l-195 383h400l194 -383l-194 -383h-400zM573 80l195 383l-195 383h400l194 -383l-194 -383h-400z" />
<glyph unicode="&#xbc;" horiz-adv-x="1538" d="M51 637v68v61q0 29 4 43h96v207h-96q-4 12 -4 41v63v67q0 32 4 52h420v-430h86q2 -20 3 -51t1 -64q0 -31 -1 -60.5t-3 -47.5h-506q-4 18 -4 51zM279 0l725 1239h315l-727 -1239h-313zM816 90v170l360 395h272v-403h78q4 -41 4 -82q0 -39 -4 -80h-78v-88h-276v88h-356z M1037 245h139v156z" />
<glyph unicode="&#xbd;" horiz-adv-x="1640" d="M51 637v68v61q0 29 4 43h96v207h-96q-4 12 -4 41v63v67q0 32 4 52h420v-430h86q2 -20 3 -51t1 -64q0 -31 -1 -60.5t-3 -47.5h-506q-4 18 -4 51zM279 0l725 1239h315l-727 -1239h-313zM958 2v69q0 70 30 122t71 90t86 61.5t75 36.5q39 20 53.5 33.5t14.5 25.5q0 31 -57 31 q-59 0 -117.5 -33t-114.5 -78v240q51 23 128 47t184 24q61 0 115 -11t95 -35.5t66 -62.5t25 -91q0 -80 -37 -123t-109 -80q-29 -16 -62.5 -31.5t-54.5 -23.5h269v-211h-660z" />
<glyph unicode="&#xbe;" horiz-adv-x="1634" d="M41 602v201q25 -8 55.5 -15.5t62 -13.5t64.5 -9t62 -3q53 0 78.5 8t25.5 35q0 23 -25.5 31t-74.5 8h-74q-4 20 -5 33.5t-1 31.5q0 16 1 31.5t5 36.5h63q49 0 67.5 14.5t18.5 32.5q0 20 -17 31.5t-58 11.5q-59 0 -121 -18.5t-107 -42.5v198l46 16q28 9 67 17t92 13t123 5 q82 0 142.5 -15t99.5 -40.5t56 -60.5t17 -74q0 -88 -92 -135q59 -25 89 -59.5t30 -86.5q0 -47 -19.5 -86t-61.5 -67.5t-111.5 -45t-169.5 -16.5q-90 0 -177.5 9.5t-150.5 23.5zM377 0l725 1239h315l-727 -1239h-313zM912 90v170l360 395h272v-403h78q4 -41 4 -82 q0 -39 -4 -80h-78v-88h-276v88h-356zM1133 245h139v156z" />
<glyph unicode="&#xbf;" horiz-adv-x="915" d="M20 14q0 53 14.5 95.5t38 77t56.5 65.5l68 63q27 20 42 37t25 32t14.5 31.5t6.5 39.5h389q0 -70 -9.5 -115t-30 -77t-47 -57.5t-63.5 -51.5l-47 -38q-18 -15 -30.5 -27.5t-17.5 -23t-5 -22.5q0 -20 15.5 -37.5t66.5 -17.5q47 0 98 13t101.5 33.5t95.5 47.5t80 55v-338 q-80 -41 -189.5 -72.5t-245.5 -31.5q-201 0 -313.5 79.5t-112.5 239.5zM264 735q0 47 1 93t5 96h416q4 -49 6 -95.5t2 -93.5q0 -49 -2 -95t-6 -95h-416q-4 49 -5 95t-1 95z" />
<glyph unicode="&#xc0;" horiz-adv-x="1380" d="M23 154q0 39 2 75.5t6 75.5h92l316 934h528l303 -934h84q4 -39 6 -75.5t2 -75.5t-2 -77t-6 -77h-592l-4 70q-2 35 -2 67q0 35 2 68l4 67h72l-21 93h-252l-20 -93h70l4 -67q2 -33 2 -68q0 -33 -2 -67l-4 -70h-580q-4 39 -6 77t-2 77zM613 635h153l-73 293zM340 1475h381 l150 -179h-283z" />
<glyph unicode="&#xc1;" horiz-adv-x="1380" d="M23 154q0 39 2 75.5t6 75.5h92l316 934h528l303 -934h84q4 -39 6 -75.5t2 -75.5t-2 -77t-6 -77h-592l-4 70q-2 35 -2 67q0 35 2 68l4 67h72l-21 93h-252l-20 -93h70l4 -67q2 -33 2 -68q0 -33 -2 -67l-4 -70h-580q-4 39 -6 77t-2 77zM613 635h153l-73 293zM561 1296 l150 179h381l-248 -179h-283z" />
<glyph unicode="&#xc2;" horiz-adv-x="1380" d="M23 154q0 39 2 75.5t6 75.5h92l316 934h528l303 -934h84q4 -39 6 -75.5t2 -75.5t-2 -77t-6 -77h-592l-4 70q-2 35 -2 67q0 35 2 68l4 67h72l-21 93h-252l-20 -93h70l4 -67q2 -33 2 -68q0 -33 -2 -67l-4 -70h-580q-4 39 -6 77t-2 77zM613 635h153l-73 293zM329 1296 l179 179h391l176 -179h-275l-98 80l-94 -80h-279z" />
<glyph unicode="&#xc3;" horiz-adv-x="1380" d="M23 154q0 39 2 75.5t6 75.5h92l316 934h528l303 -934h84q4 -39 6 -75.5t2 -75.5t-2 -77t-6 -77h-592l-4 70q-2 35 -2 67q0 35 2 68l4 67h72l-21 93h-252l-20 -93h70l4 -67q2 -33 2 -68q0 -33 -2 -67l-4 -70h-580q-4 39 -6 77t-2 77zM613 635h153l-73 293zM315 1296 q8 98 67.5 143.5t160.5 45.5q43 0 84 -11.5l80 -23.5l51 -12q16 -4 28 -4q45 0 50 41h229q-6 -102 -63.5 -145.5t-145.5 -43.5q-55 0 -98 11.5l-84 23.5q-33 10 -50.5 13t-29.5 3q-43 0 -49 -41h-230z" />
<glyph unicode="&#xc4;" horiz-adv-x="1380" d="M23 154q0 39 2 75.5t6 75.5h92l316 934h528l303 -934h84q4 -39 6 -75.5t2 -75.5t-2 -77t-6 -77h-592l-4 70q-2 35 -2 67q0 35 2 68l4 67h72l-21 93h-252l-20 -93h70l4 -67q2 -33 2 -68q0 -33 -2 -67l-4 -70h-580q-4 39 -6 77t-2 77zM613 635h153l-73 293zM363 1393 q0 43 4 92h250q6 -49 6 -92q0 -47 -6 -97h-250q-4 50 -4 97zM768 1393q0 43 6 92h250q4 -49 4 -92q0 -47 -4 -97h-250q-6 50 -6 97z" />
<glyph unicode="&#xc5;" horiz-adv-x="1380" d="M35 154q0 39 2 75.5t6 75.5h92l338 864q-8 18 -13 41t-5 45q0 43 15 81t45 67t76 45t109 16t108.5 -16t76 -45t45 -67t14.5 -81t-16 -86l327 -864h84q4 -39 5.5 -75.5t1.5 -75.5t-1.5 -77t-5.5 -77h-594l-4 70q-2 35 -2 67q0 35 2 71l4 68h72l-14 78h-236l-14 -78h72 l4 -68q2 -36 2 -71q0 -33 -2 -67l-4 -70h-582q-4 39 -6 77t-2 77zM610 635h156l-76 293zM614 1255q0 -35 24 -59.5t62 -24.5q39 0 61.5 25t22.5 59q0 37 -22.5 60.5t-61.5 23.5t-62.5 -23.5t-23.5 -60.5z" />
<glyph unicode="&#xc6;" horiz-adv-x="1859" d="M35 154q0 39 2 75.5t6 75.5h102l289 617h-106l-4 77q-2 39 -2 80t2 81l4 79h1487v-379q-45 -4 -91.5 -5t-91.5 -1q-47 0 -92 1t-92 5v70h-186v-139h380l5 -82q2 -41 2 -80q0 -41 -2 -81l-5 -79h-380v-160h194v86q82 6 168 6q51 0 101 -2l100 -4v-395h-1024q-4 39 -5 71.5 t-1 65.5q0 35 1 68t5 71h80v84h-316l-35 -84h80q4 -33 5 -68.5t1 -70.5q0 -33 -1 -67.5t-5 -69.5h-567q-4 39 -6 77t-2 77zM676 641h205v299h-82z" />
<glyph unicode="&#xc7;" horiz-adv-x="1189" d="M31 616q0 150 40 270t111.5 206t173 132t224.5 46q102 0 158.5 -22.5t86.5 -43.5v35q39 4 78 5t78 1t78 -1t78 -5v-582l-95 -4q-47 -2 -92 -2q-47 0 -93 2l-91 4v138q0 70 -30.5 108.5t-92.5 38.5q-180 0 -180 -299q0 -86 18.5 -143.5t56 -93t91 -52t123.5 -16.5 q74 0 134 14.5t108 36t82 44t52 38.5v-405q-14 -10 -46.5 -25.5t-83 -30t-121 -27t-162.5 -14.5q41 -10 66.5 -29.5t41 -42t21.5 -49t6 -49.5q0 -86 -67.5 -134t-190.5 -48q-47 0 -87 5t-72 11.5t-52.5 12.5t-26.5 10l43 143q14 -4 55.5 -14t94.5 -10q29 0 52.5 7t23.5 32 q0 16 -17.5 27.5t-52.5 11.5q-18 0 -48 -4.5t-54 -16.5l-37 86q14 10 51 29.5t100 27.5q-264 29 -399 194.5t-135 446.5z" />
<glyph unicode="&#xc8;" horiz-adv-x="1157" d="M35 154q0 39 2 75.5t6 75.5h78v629h-78q-4 39 -6 76t-2 75q0 39 2 77t6 77h1069v-379q-47 -4 -92 -5t-92 -1q-45 0 -91 1t-92 5v72h-210v-141h403q4 -41 5 -82t1 -80q0 -41 -1 -81t-5 -79h-403v-152h219v78q82 6 166 6q51 0 101 -2l101 -4v-395h-1079q-4 39 -6 77t-2 77z M262 1475h381l150 -179h-283z" />
<glyph unicode="&#xc9;" horiz-adv-x="1157" d="M35 154q0 39 2 75.5t6 75.5h78v629h-78q-4 39 -6 76t-2 75q0 39 2 77t6 77h1069v-379q-47 -4 -92 -5t-92 -1q-45 0 -91 1t-92 5v72h-210v-141h403q4 -41 5 -82t1 -80q0 -41 -1 -81t-5 -79h-403v-152h219v78q82 6 166 6q51 0 101 -2l101 -4v-395h-1079q-4 39 -6 77t-2 77z M465 1296l150 179h381l-248 -179h-283z" />
<glyph unicode="&#xca;" horiz-adv-x="1157" d="M35 154q0 39 2 75.5t6 75.5h78v629h-78q-4 39 -6 76t-2 75q0 39 2 77t6 77h1069v-379q-47 -4 -92 -5t-92 -1q-45 0 -91 1t-92 5v72h-210v-141h403q4 -41 5 -82t1 -80q0 -41 -1 -81t-5 -79h-403v-152h219v78q82 6 166 6q51 0 101 -2l101 -4v-395h-1079q-4 39 -6 77t-2 77z M204 1296l179 179h391l176 -179h-275l-98 80l-94 -80h-279z" />
<glyph unicode="&#xcb;" horiz-adv-x="1157" d="M35 154q0 39 2 75.5t6 75.5h78v629h-78q-4 39 -6 76t-2 75q0 39 2 77t6 77h1069v-379q-47 -4 -92 -5t-92 -1q-45 0 -91 1t-92 5v72h-210v-141h403q4 -41 5 -82t1 -80q0 -41 -1 -81t-5 -79h-403v-152h219v78q82 6 166 6q51 0 101 -2l101 -4v-395h-1079q-4 39 -6 77t-2 77z M246 1393q0 43 4 92h250q6 -49 6 -92q0 -47 -6 -97h-250q-4 50 -4 97zM651 1393q0 43 6 92h250q4 -49 4 -92q0 -47 -4 -97h-250q-6 50 -6 97z" />
<glyph unicode="&#xcc;" horiz-adv-x="653" d="M35 154q0 39 2 75.5t6 75.5h78v629h-78q-4 39 -6 76t-2 75q0 39 2 77t6 77h569l4 -77q2 -38 2 -77t-2 -75l-4 -76h-77v-629h77l4 -76q2 -37 2 -75q0 -39 -2 -77l-4 -77h-569q-4 39 -6 77t-2 77zM-33 1475h381l150 -179h-283z" />
<glyph unicode="&#xcd;" horiz-adv-x="653" d="M35 154q0 39 2 75.5t6 75.5h78v629h-78q-4 39 -6 76t-2 75q0 39 2 77t6 77h569l4 -77q2 -38 2 -77t-2 -75l-4 -76h-77v-629h77l4 -76q2 -37 2 -75q0 -39 -2 -77l-4 -77h-569q-4 39 -6 77t-2 77zM157 1296l150 179h381l-248 -179h-283z" />
<glyph unicode="&#xce;" horiz-adv-x="653" d="M35 154q0 39 2 75.5t6 75.5h78v629h-78q-4 39 -6 76t-2 75q0 39 2 77t6 77h569l4 -77q2 -38 2 -77t-2 -75l-4 -76h-77v-629h77l4 -76q2 -37 2 -75q0 -39 -2 -77l-4 -77h-569q-4 39 -6 77t-2 77zM-45 1296l179 179h391l176 -179h-275l-98 80l-94 -80h-279z" />
<glyph unicode="&#xcf;" horiz-adv-x="653" d="M35 154q0 39 2 75.5t6 75.5h78v629h-78q-4 39 -6 76t-2 75q0 39 2 77t6 77h569l4 -77q2 -38 2 -77t-2 -75l-4 -76h-77v-629h77l4 -76q2 -37 2 -75q0 -39 -2 -77l-4 -77h-569q-4 39 -6 77t-2 77zM-4 1393q0 43 4 92h250q6 -49 6 -92q0 -47 -6 -97h-250q-4 50 -4 97z M401 1393q0 43 6 92h250q4 -49 4 -92q0 -47 -4 -97h-250q-6 50 -6 97z" />
<glyph unicode="&#xd0;" horiz-adv-x="1308" d="M35 154q0 39 2 75.5t6 75.5h78v199h-86v231h86v199h-78q-4 39 -6 76t-2 75q0 39 2 77t6 77h627q147 0 260.5 -47t191.5 -130t117 -194.5t39 -236.5q0 -92 -26.5 -202t-96.5 -206t-186.5 -159.5t-294.5 -63.5h-631q-4 39 -6 77t-2 77zM535 319h69q113 0 177.5 74t64.5 232 q0 92 -20.5 149t-55.5 89t-79 44.5t-89 12.5h-67v-185h143v-231h-143v-185z" />
<glyph unicode="&#xd1;" horiz-adv-x="1290" d="M35 154q0 39 2 75.5t6 75.5h78v629h-78q-4 39 -6 76t-2 75q0 39 2 77t6 77h451l294 -584v279h-53l-4 76q-2 37 -2 75q0 39 2 77l4 77h514q4 -39 5 -77t1 -77t-1 -75.5t-5 -75.5h-78v-934h-362l-305 588v-283h53q4 -39 6 -75.5t2 -75.5t-2 -77t-6 -77h-514q-4 39 -6 77 t-2 77zM270 1296q8 98 67.5 143.5t160.5 45.5q43 0 84 -11.5l80 -23.5l51 -12q16 -4 28 -4q45 0 50 41h229q-6 -102 -63.5 -145.5t-145.5 -43.5q-55 0 -98 11.5l-84 23.5q-33 10 -50.5 13t-29.5 3q-43 0 -49 -41h-230z" />
<glyph unicode="&#xd2;" horiz-adv-x="1345" d="M31 618q0 119 32.5 237t107.5 209t199 148.5t306 57.5q178 0 301 -57.5t197.5 -148.5t107.5 -209t33 -237t-33 -235.5t-107.5 -207.5t-197.5 -148.5t-301 -57.5q-182 0 -306 57.5t-199 148.5t-107.5 207.5t-32.5 235.5zM463 618q0 -158 56 -239.5t157 -81.5 q96 0 152.5 82t56.5 239q0 160 -56.5 242t-152.5 82q-100 0 -156.5 -82t-56.5 -242zM340 1495h381l150 -179h-283z" />
<glyph unicode="&#xd3;" horiz-adv-x="1345" d="M31 618q0 119 32.5 237t107.5 209t199 148.5t306 57.5q178 0 301 -57.5t197.5 -148.5t107.5 -209t33 -237t-33 -235.5t-107.5 -207.5t-197.5 -148.5t-301 -57.5q-182 0 -306 57.5t-199 148.5t-107.5 207.5t-32.5 235.5zM463 618q0 -158 56 -239.5t157 -81.5 q96 0 152.5 82t56.5 239q0 160 -56.5 242t-152.5 82q-100 0 -156.5 -82t-56.5 -242zM508 1316l150 179h381l-248 -179h-283z" />
<glyph unicode="&#xd4;" horiz-adv-x="1345" d="M31 618q0 119 32.5 237t107.5 209t199 148.5t306 57.5q178 0 301 -57.5t197.5 -148.5t107.5 -209t33 -237t-33 -235.5t-107.5 -207.5t-197.5 -148.5t-301 -57.5q-182 0 -306 57.5t-199 148.5t-107.5 207.5t-32.5 235.5zM463 618q0 -158 56 -239.5t157 -81.5 q96 0 152.5 82t56.5 239q0 160 -56.5 242t-152.5 82q-100 0 -156.5 -82t-56.5 -242zM301 1316l179 179h391l176 -179h-275l-98 80l-94 -80h-279z" />
<glyph unicode="&#xd5;" horiz-adv-x="1345" d="M31 618q0 119 32.5 237t107.5 209t199 148.5t306 57.5q178 0 301 -57.5t197.5 -148.5t107.5 -209t33 -237t-33 -235.5t-107.5 -207.5t-197.5 -148.5t-301 -57.5q-182 0 -306 57.5t-199 148.5t-107.5 207.5t-32.5 235.5zM463 618q0 -158 56 -239.5t157 -81.5 q96 0 152.5 82t56.5 239q0 160 -56.5 242t-152.5 82q-100 0 -156.5 -82t-56.5 -242zM299 1316q8 98 67.5 143.5t160.5 45.5q43 0 84 -11.5l80 -23.5l51 -12q16 -4 28 -4q45 0 50 41h229q-6 -102 -63.5 -145.5t-145.5 -43.5q-55 0 -98 11.5l-84 23.5q-33 10 -50.5 13t-29.5 3 q-43 0 -49 -41h-230z" />
<glyph unicode="&#xd6;" horiz-adv-x="1345" d="M31 618q0 119 32.5 237t107.5 209t199 148.5t306 57.5q178 0 301 -57.5t197.5 -148.5t107.5 -209t33 -237t-33 -235.5t-107.5 -207.5t-197.5 -148.5t-301 -57.5q-182 0 -306 57.5t-199 148.5t-107.5 207.5t-32.5 235.5zM463 618q0 -158 56 -239.5t157 -81.5 q96 0 152.5 82t56.5 239q0 160 -56.5 242t-152.5 82q-100 0 -156.5 -82t-56.5 -242zM340 1407q0 43 4 92h250q6 -49 6 -92q0 -47 -6 -97h-250q-4 50 -4 97zM745 1407q0 43 6 92h250q4 -49 4 -92q0 -47 -4 -97h-250q-6 50 -6 97z" />
<glyph unicode="&#xd7;" horiz-adv-x="978" d="M35 397l217 221l-217 224l252 248l202 -226l205 226l250 -248l-217 -224l217 -221l-252 -250l-203 226l-200 -226z" />
<glyph unicode="&#xd8;" horiz-adv-x="1345" d="M31 141l94 97q-49 86 -71.5 183t-22.5 197q0 119 32.5 237t107.5 209t199 148.5t306 57.5q117 0 208 -25.5t163 -68.5l94 94l174 -174l-96 -99q51 -84 73.5 -181t22.5 -198q0 -119 -33 -235.5t-107.5 -207.5t-197.5 -148.5t-301 -57.5q-121 0 -213 24.5t-164 69.5 l-94 -96zM446 592q0 -12 3 -27l348 357q-51 43 -121 43q-109 0 -169.5 -88.5t-60.5 -258.5v-26zM549 315q51 -41 127 -41q102 0 162.5 87.5t60.5 256.5q0 14 -1 26.5t-1 27.5z" />
<glyph unicode="&#xd9;" horiz-adv-x="1341" d="M35 1085q0 39 2 77t6 77h586q4 -39 5 -77t1 -77t-1 -75.5t-5 -75.5h-94v-485q0 -43 11 -74t30.5 -48.5t44 -24.5t51.5 -7q25 0 49 7t43.5 24.5t32 48.5t12.5 74v485h-94q-4 39 -6 76t-2 75q0 39 2 77t6 77h585q4 -39 5.5 -77t1.5 -77t-1 -75.5t-6 -75.5h-77v-496 q0 -225 -144.5 -347t-406.5 -122q-264 0 -407.5 120t-143.5 349v496h-78q-4 39 -6 75.5t-2 75.5zM321 1475h381l150 -179h-283z" />
<glyph unicode="&#xda;" horiz-adv-x="1341" d="M35 1085q0 39 2 77t6 77h586q4 -39 5 -77t1 -77t-1 -75.5t-5 -75.5h-94v-485q0 -43 11 -74t30.5 -48.5t44 -24.5t51.5 -7q25 0 49 7t43.5 24.5t32 48.5t12.5 74v485h-94q-4 39 -6 76t-2 75q0 39 2 77t6 77h585q4 -39 5.5 -77t1.5 -77t-1 -75.5t-6 -75.5h-77v-496 q0 -225 -144.5 -347t-406.5 -122q-264 0 -407.5 120t-143.5 349v496h-78q-4 39 -6 75.5t-2 75.5zM491 1296l150 179h381l-248 -179h-283z" />
<glyph unicode="&#xdb;" horiz-adv-x="1341" d="M35 1085q0 39 2 77t6 77h586q4 -39 5 -77t1 -77t-1 -75.5t-5 -75.5h-94v-485q0 -43 11 -74t30.5 -48.5t44 -24.5t51.5 -7q25 0 49 7t43.5 24.5t32 48.5t12.5 74v485h-94q-4 39 -6 76t-2 75q0 39 2 77t6 77h585q4 -39 5.5 -77t1.5 -77t-1 -75.5t-6 -75.5h-77v-496 q0 -225 -144.5 -347t-406.5 -122q-264 0 -407.5 120t-143.5 349v496h-78q-4 39 -6 75.5t-2 75.5zM299 1296l179 179h391l176 -179h-275l-98 80l-94 -80h-279z" />
<glyph unicode="&#xdc;" horiz-adv-x="1341" d="M35 1085q0 39 2 77t6 77h586q4 -39 5 -77t1 -77t-1 -75.5t-5 -75.5h-94v-485q0 -43 11 -74t30.5 -48.5t44 -24.5t51.5 -7q25 0 49 7t43.5 24.5t32 48.5t12.5 74v485h-94q-4 39 -6 76t-2 75q0 39 2 77t6 77h585q4 -39 5.5 -77t1.5 -77t-1 -75.5t-6 -75.5h-77v-496 q0 -225 -144.5 -347t-406.5 -122q-264 0 -407.5 120t-143.5 349v496h-78q-4 39 -6 75.5t-2 75.5zM338 1393q0 43 4 92h250q6 -49 6 -92q0 -47 -6 -97h-250q-4 50 -4 97zM743 1393q0 43 6 92h250q4 -49 4 -92q0 -47 -4 -97h-250q-6 50 -6 97z" />
<glyph unicode="&#xdd;" horiz-adv-x="1337" d="M35 1085q0 39 2 77t6 77h582l4 -74q2 -37 2 -73q0 -37 -2 -73l-4 -75h-60l113 -205l123 205h-58q-4 39 -6 75t-2 73t2 73.5t6 73.5h551q4 -39 6.5 -77t2.5 -77t-2.5 -75.5t-6.5 -75.5h-84l-336 -457v-172h101l4 -76q2 -37 2 -75q0 -39 -2 -77l-4 -77h-610q-4 39 -6.5 77 t-2.5 77t2 75.5t7 75.5h98v172l-336 457h-84q-4 39 -6 75.5t-2 75.5zM510 1296l150 179h381l-248 -179h-283z" />
<glyph unicode="&#xde;" horiz-adv-x="1138" d="M35 154q0 39 2 75.5t6 75.5h78v629h-78q-4 39 -6 76t-2 75q0 39 2 77t6 77h461v-221h190q100 0 179 -31t132.5 -84t81 -124.5t27.5 -153.5q0 -70 -21.5 -142.5t-70.5 -130t-129 -94.5t-199 -37h-190v-221h-461q-4 39 -6 77t-2 77zM504 520h131q41 0 64.5 26.5t23.5 71.5 q0 41 -23.5 70t-64.5 29h-131v-197z" />
<glyph unicode="&#xdf;" horiz-adv-x="1126" d="M35 143.5q0 77.5 6 141.5h78v610q0 90 27.5 166t86 132t148.5 88t215 32q106 0 188 -28t139.5 -74t87 -110.5t29.5 -135.5q0 -88 -32.5 -154t-83.5 -106q35 -20 66.5 -45t55 -62t38 -89t14.5 -124q0 -111 -35 -186.5t-91.5 -124.5t-127 -70.5t-142.5 -21.5q-39 0 -70.5 2 t-56.5 6v274q18 -2 28.5 -3t17.5 -1q39 0 66.5 32t27.5 114q0 80 -30 111.5t-71 31.5h-34q-14 127 0 256h24q39 0 55.5 33.5t16.5 91.5q0 51 -21.5 82.5t-64.5 31.5q-45 0 -68.5 -32.5t-23.5 -89.5v-922h-457q-6 66 -6 143.5z" />
<glyph unicode="&#xe0;" horiz-adv-x="1036" d="M31 270q0 90 35.5 148.5t97 94.5t148.5 54.5t190 26.5l39 2v12q0 39 -22.5 57.5t-76.5 18.5q-70 0 -147.5 -20.5t-188.5 -67.5v262q78 35 175.5 61.5t230.5 26.5q53 0 123 -9t133 -43t106.5 -100.5t43.5 -179.5v-329h77q4 -35 6.5 -71t2.5 -71q0 -37 -2.5 -72.5 t-6.5 -70.5h-420l-8 66q-14 -12 -35.5 -27.5t-50 -29t-66.5 -23t-87 -9.5q-61 0 -114.5 16.5t-94.5 52.5t-64.5 91t-23.5 133zM395 295q0 -31 16.5 -49.5t51.5 -18.5q39 0 60.5 20.5t21.5 61.5v86l-39 -6q-66 -8 -88.5 -34.5t-22.5 -59.5zM182 1171h381l150 -176h-283z" />
<glyph unicode="&#xe1;" horiz-adv-x="1036" d="M31 270q0 90 35.5 148.5t97 94.5t148.5 54.5t190 26.5l39 2v12q0 39 -22.5 57.5t-76.5 18.5q-70 0 -147.5 -20.5t-188.5 -67.5v262q78 35 175.5 61.5t230.5 26.5q53 0 123 -9t133 -43t106.5 -100.5t43.5 -179.5v-329h77q4 -35 6.5 -71t2.5 -71q0 -37 -2.5 -72.5 t-6.5 -70.5h-420l-8 66q-14 -12 -35.5 -27.5t-50 -29t-66.5 -23t-87 -9.5q-61 0 -114.5 16.5t-94.5 52.5t-64.5 91t-23.5 133zM395 295q0 -31 16.5 -49.5t51.5 -18.5q39 0 60.5 20.5t21.5 61.5v86l-39 -6q-66 -8 -88.5 -34.5t-22.5 -59.5zM346 995l150 176h381l-248 -176 h-283z" />
<glyph unicode="&#xe2;" horiz-adv-x="1036" d="M31 270q0 90 35.5 148.5t97 94.5t148.5 54.5t190 26.5l39 2v12q0 39 -22.5 57.5t-76.5 18.5q-70 0 -147.5 -20.5t-188.5 -67.5v262q78 35 175.5 61.5t230.5 26.5q53 0 123 -9t133 -43t106.5 -100.5t43.5 -179.5v-329h77q4 -35 6.5 -71t2.5 -71q0 -37 -2.5 -72.5 t-6.5 -70.5h-420l-8 66q-14 -12 -35.5 -27.5t-50 -29t-66.5 -23t-87 -9.5q-61 0 -114.5 16.5t-94.5 52.5t-64.5 91t-23.5 133zM395 295q0 -31 16.5 -49.5t51.5 -18.5q39 0 60.5 20.5t21.5 61.5v86l-39 -6q-66 -8 -88.5 -34.5t-22.5 -59.5zM137 995l179 176h391l176 -176 h-275l-98 80l-94 -80h-279z" />
<glyph unicode="&#xe3;" horiz-adv-x="1036" d="M31 270q0 90 35.5 148.5t97 94.5t148.5 54.5t190 26.5l39 2v12q0 39 -22.5 57.5t-76.5 18.5q-70 0 -147.5 -20.5t-188.5 -67.5v262q78 35 175.5 61.5t230.5 26.5q53 0 123 -9t133 -43t106.5 -100.5t43.5 -179.5v-329h77q4 -35 6.5 -71t2.5 -71q0 -37 -2.5 -72.5 t-6.5 -70.5h-420l-8 66q-14 -12 -35.5 -27.5t-50 -29t-66.5 -23t-87 -9.5q-61 0 -114.5 16.5t-94.5 52.5t-64.5 91t-23.5 133zM395 295q0 -31 16.5 -49.5t51.5 -18.5q39 0 60.5 20.5t21.5 61.5v86l-39 -6q-66 -8 -88.5 -34.5t-22.5 -59.5zM143 995q8 96 67.5 141t160.5 45 q43 0 84 -11t80 -23l51 -13q16 -4 28 -4q45 0 50 41h229q-6 -102 -63.5 -144t-145.5 -42q-55 0 -98 11l-84 22q-33 10 -50.5 14t-29.5 4q-43 0 -49 -41h-230z" />
<glyph unicode="&#xe4;" horiz-adv-x="1036" d="M31 270q0 90 35.5 148.5t97 94.5t148.5 54.5t190 26.5l39 2v12q0 39 -22.5 57.5t-76.5 18.5q-70 0 -147.5 -20.5t-188.5 -67.5v262q78 35 175.5 61.5t230.5 26.5q53 0 123 -9t133 -43t106.5 -100.5t43.5 -179.5v-329h77q4 -35 6.5 -71t2.5 -71q0 -37 -2.5 -72.5 t-6.5 -70.5h-420l-8 66q-14 -12 -35.5 -27.5t-50 -29t-66.5 -23t-87 -9.5q-61 0 -114.5 16.5t-94.5 52.5t-64.5 91t-23.5 133zM395 295q0 -31 16.5 -49.5t51.5 -18.5q39 0 60.5 20.5t21.5 61.5v86l-39 -6q-66 -8 -88.5 -34.5t-22.5 -59.5zM183 1085q0 45 4 92h250 q6 -47 6 -92q0 -49 -6 -90h-250q-4 41 -4 90zM588 1085q0 45 6 92h250q4 -47 4 -92q0 -49 -4 -90h-250q-6 41 -6 90z" />
<glyph unicode="&#xe5;" horiz-adv-x="1036" d="M31 270q0 90 35.5 148.5t97 94.5t148.5 54.5t190 26.5l39 2v12q0 39 -22.5 57.5t-76.5 18.5q-70 0 -147.5 -20.5t-188.5 -67.5v262q45 18 96.5 35.5t108.5 32.5q-39 49 -39 116q0 41 14.5 78t45 65.5t77 45t107.5 16.5q63 0 109.5 -16.5t77 -45t45 -65.5t14.5 -78 q0 -37 -12.5 -70.5t-34.5 -56.5q41 -16 76.5 -39.5t64.5 -59.5t45.5 -86t16.5 -116v-329h77q4 -35 6.5 -71t2.5 -71q0 -37 -2.5 -72.5t-6.5 -70.5h-420l-8 66q-14 -12 -35.5 -27.5t-50 -29t-66.5 -23t-87 -9.5q-61 0 -114.5 16.5t-94.5 52.5t-64.5 91t-23.5 133zM395 295 q0 -31 16.5 -49.5t51.5 -18.5q39 0 60.5 20.5t21.5 61.5v86l-39 -6q-66 -8 -88.5 -34.5t-22.5 -59.5zM432 1038q0 -35 22.5 -59.5t61.5 -24.5t61.5 25t22.5 59q0 37 -22.5 60.5t-61.5 23.5t-61.5 -23.5t-22.5 -60.5z" />
<glyph unicode="&#xe6;" horiz-adv-x="1452" d="M31 279q0 86 39 142t101 91t138 52.5t152 25.5l74 4v14q0 37 -23 56.5t-78 19.5q-66 0 -140.5 -21.5t-187.5 -68.5v264q80 35 172.5 60.5t202.5 25.5q66 0 137.5 -10t135.5 -68q33 29 100.5 53.5t169.5 24.5q106 0 182 -36t124 -98t71.5 -143t23.5 -169v-133h-520 q16 -49 62.5 -78t128.5 -29q76 0 145.5 12.5t142.5 30.5v-278q-86 -25 -174 -35.5t-178 -10.5q-117 0 -205 32t-133 69q-49 -43 -131 -72t-178 -29q-80 0 -145.5 17.5t-111.5 54.5t-71.5 93.5t-25.5 136.5zM395 291q0 -29 15.5 -45.5t46.5 -16.5q37 0 59.5 20.5t22.5 61.5 v74l-41 -4h2q-66 -6 -85.5 -30.5t-19.5 -59.5zM895 575h170q-4 68 -27.5 92.5t-56.5 24.5q-35 0 -57.5 -24.5t-28.5 -92.5z" />
<glyph unicode="&#xe7;" horiz-adv-x="919" d="M29 465q0 111 28.5 200t79.5 151.5t126 96t169 33.5q76 0 130 -20.5t73 -40.5v39l61 4q31 2 64 2q31 0 62 -2l63 -4v-410q-39 -4 -76 -6t-76 -2t-75.5 2t-75.5 6v70q0 98 -70 98q-45 0 -68.5 -48t-23.5 -142q0 -63 16.5 -104.5t43 -66t61 -35t75.5 -10.5q68 0 140.5 23 t128.5 55v-301q-20 -14 -55 -26.5t-81.5 -24.5t-100.5 -19.5t-109 -7.5h-13q51 -6 84 -24.5t51.5 -44t25.5 -53t7 -54.5q0 -86 -67.5 -134t-190.5 -48q-45 0 -86 5t-72.5 11.5t-52 12.5t-24.5 10l43 143q12 -4 53 -14t96 -10q27 0 50.5 7t23.5 32q0 16 -16.5 27.5 t-53.5 11.5q-16 0 -47 -4.5t-55 -16.5l-37 86q18 12 67.5 34.5t139.5 27.5q-109 10 -189.5 48t-136 101.5t-83 148.5t-27.5 187z" />
<glyph unicode="&#xe8;" horiz-adv-x="968" d="M54 465q0 92 27.5 179t83 153.5t144.5 107.5t212 41q129 0 215 -41t137 -105.5t72.5 -143t21.5 -156.5v-131h-524q16 -51 64 -81t143 -30q84 0 160.5 13.5t119.5 23.5v-272q-90 -25 -175 -36.5t-187 -11.5q-137 0 -233.5 40t-160 105.5t-92 155t-28.5 189.5zM431 569h186 q0 141 -90 142q-90 -1 -96 -142zM184 1171h381l150 -176h-283z" />
<glyph unicode="&#xe9;" horiz-adv-x="968" d="M54 465q0 92 27.5 179t83 153.5t144.5 107.5t212 41q129 0 215 -41t137 -105.5t72.5 -143t21.5 -156.5v-131h-524q16 -51 64 -81t143 -30q84 0 160.5 13.5t119.5 23.5v-272q-90 -25 -175 -36.5t-187 -11.5q-137 0 -233.5 40t-160 105.5t-92 155t-28.5 189.5zM431 569h186 q0 141 -90 142q-90 -1 -96 -142zM346 995l150 176h381l-248 -176h-283z" />
<glyph unicode="&#xea;" horiz-adv-x="968" d="M54 465q0 92 27.5 179t83 153.5t144.5 107.5t212 41q129 0 215 -41t137 -105.5t72.5 -143t21.5 -156.5v-131h-524q16 -51 64 -81t143 -30q84 0 160.5 13.5t119.5 23.5v-272q-90 -25 -175 -36.5t-187 -11.5q-137 0 -233.5 40t-160 105.5t-92 155t-28.5 189.5zM431 569h186 q0 141 -90 142q-90 -1 -96 -142zM145 995l179 176h391l176 -176h-275l-98 80l-94 -80h-279z" />
<glyph unicode="&#xeb;" horiz-adv-x="968" d="M54 465q0 92 27.5 179t83 153.5t144.5 107.5t212 41q129 0 215 -41t137 -105.5t72.5 -143t21.5 -156.5v-131h-524q16 -51 64 -81t143 -30q84 0 160.5 13.5t119.5 23.5v-272q-90 -25 -175 -36.5t-187 -11.5q-137 0 -233.5 40t-160 105.5t-92 155t-28.5 189.5zM431 569h186 q0 141 -90 142q-90 -1 -96 -142zM176 1085q0 45 4 92h250q6 -47 6 -92q0 -49 -6 -90h-250q-4 41 -4 90zM581 1085q0 45 6 92h250q4 -47 4 -92q0 -49 -4 -90h-250q-6 41 -6 90z" />
<glyph unicode="&#xec;" horiz-adv-x="622" d="M35 143q0 35 1 71t5 71h78v352h-78q-4 37 -5 72.5t-1 70.5t1 71t5 73h465v-639h78l4 -71q2 -36 2 -71q0 -37 -2 -72l-4 -71h-543q-4 35 -5 70.5t-1 72.5zM-76 1159h381l150 -176h-283z" />
<glyph unicode="&#xed;" horiz-adv-x="622" d="M35 143q0 35 1 71t5 71h78v352h-78q-4 37 -5 72.5t-1 70.5t1 71t5 73h465v-639h78l4 -71q2 -36 2 -71q0 -37 -2 -72l-4 -71h-543q-4 35 -5 70.5t-1 72.5zM131 983l150 176h381l-248 -176h-283z" />
<glyph unicode="&#xee;" horiz-adv-x="622" d="M35 143q0 35 1 71t5 71h78v352h-78q-4 37 -5 72.5t-1 70.5t1 71t5 73h465v-639h78l4 -71q2 -36 2 -71q0 -37 -2 -72l-4 -71h-543q-4 35 -5 70.5t-1 72.5zM-72 983l179 176h391l176 -176h-275l-98 80l-94 -80h-279z" />
<glyph unicode="&#xef;" horiz-adv-x="622" d="M35 143q0 35 1 71t5 71h78v352h-78q-4 37 -5 72.5t-1 70.5t1 71t5 73h465v-639h78l4 -71q2 -36 2 -71q0 -37 -2 -72l-4 -71h-543q-4 35 -5 70.5t-1 72.5zM-51 1073q0 45 4 92h250q6 -47 6 -92q0 -49 -6 -90h-250q-4 41 -4 90zM354 1073q0 45 6 92h250q4 -47 4 -92 q0 -49 -4 -90h-250q-6 41 -6 90z" />
<glyph unicode="&#xf0;" horiz-adv-x="1017" d="M29 406q0 88 28.5 164.5t83 133t128 89t163.5 32.5q66 0 99.5 -12t48.5 -18q-25 41 -68 88t-92 75l-135 -114l-111 117l98 86q-25 14 -51 24t-55 23l82 184q57 -16 110.5 -34.5t96.5 -39.5l120 107l111 -121l-76 -68q133 -88 209 -186t114 -189.5t47 -167t9 -116.5 q0 -109 -30.5 -198t-91 -153.5t-151.5 -100.5t-210 -36q-123 0 -213 35t-148.5 92.5t-87 135.5t-28.5 168zM412 406q0 -92 26.5 -129t71.5 -37t70.5 36.5t25.5 129.5q0 90 -25.5 127.5t-70.5 37.5t-71.5 -37.5t-26.5 -127.5z" />
<glyph unicode="&#xf1;" d="M35 143q0 35 1 71t5 71h78v352h-78q-4 37 -5 72.5t-1 70.5t1 71t5 73h412l4 -70q16 14 38.5 30.5t54.5 30t72 22.5t89 9q63 0 118.5 -18.5t96.5 -55t64.5 -91t23.5 -126.5v-370h78q4 -35 5 -71t1 -71q0 -37 -1 -72.5t-5 -70.5h-465v563q0 33 -11.5 53.5t-37.5 20.5 q-10 0 -22.5 -3t-24 -16.5t-18.5 -37t-7 -64.5v-516h-465q-4 35 -5 70.5t-1 72.5zM190 1006q8 96 67.5 141t160.5 45q43 0 84 -11t80 -23l51 -13q16 -4 28 -4q45 0 50 41h229q-6 -102 -63.5 -144t-145.5 -42q-55 0 -98 11l-84 22q-33 10 -50.5 14t-29.5 4q-43 0 -49 -41 h-230z" />
<glyph unicode="&#xf2;" horiz-adv-x="1034" d="M29 463q0 102 29.5 191t90 154.5t152.5 101.5t215 36q125 0 217 -36t152.5 -101.5t90.5 -154.5t30 -191q0 -104 -30 -193.5t-90.5 -154t-152.5 -102.5t-217 -38q-123 0 -215 38t-152.5 102.5t-90 154t-29.5 193.5zM420 463q0 -119 26.5 -165t69.5 -46q47 0 72.5 46 t25.5 165q0 115 -25.5 161t-72.5 46q-43 0 -69.5 -46t-26.5 -161zM166 1171h381l150 -176h-283z" />
<glyph unicode="&#xf3;" horiz-adv-x="1034" d="M29 463q0 102 29.5 191t90 154.5t152.5 101.5t215 36q125 0 217 -36t152.5 -101.5t90.5 -154.5t30 -191q0 -104 -30 -193.5t-90.5 -154t-152.5 -102.5t-217 -38q-123 0 -215 38t-152.5 102.5t-90 154t-29.5 193.5zM420 463q0 -119 26.5 -165t69.5 -46q47 0 72.5 46 t25.5 165q0 115 -25.5 161t-72.5 46q-43 0 -69.5 -46t-26.5 -161zM370 995l150 176h381l-248 -176h-283z" />
<glyph unicode="&#xf4;" horiz-adv-x="1034" d="M29 463q0 102 29.5 191t90 154.5t152.5 101.5t215 36q125 0 217 -36t152.5 -101.5t90.5 -154.5t30 -191q0 -104 -30 -193.5t-90.5 -154t-152.5 -102.5t-217 -38q-123 0 -215 38t-152.5 102.5t-90 154t-29.5 193.5zM420 463q0 -119 26.5 -165t69.5 -46q47 0 72.5 46 t25.5 165q0 115 -25.5 161t-72.5 46q-43 0 -69.5 -46t-26.5 -161zM143 995l179 176h391l176 -176h-275l-98 80l-94 -80h-279z" />
<glyph unicode="&#xf5;" horiz-adv-x="1034" d="M29 463q0 102 29.5 191t90 154.5t152.5 101.5t215 36q125 0 217 -36t152.5 -101.5t90.5 -154.5t30 -191q0 -104 -30 -193.5t-90.5 -154t-152.5 -102.5t-217 -38q-123 0 -215 38t-152.5 102.5t-90 154t-29.5 193.5zM420 463q0 -119 26.5 -165t69.5 -46q47 0 72.5 46 t25.5 165q0 115 -25.5 161t-72.5 46q-43 0 -69.5 -46t-26.5 -161zM141 995q8 96 67.5 141t160.5 45q43 0 84 -11t80 -23l51 -13q16 -4 28 -4q45 0 50 41h229q-6 -102 -63.5 -144t-145.5 -42q-55 0 -98 11l-84 22q-33 10 -50.5 14t-29.5 4q-43 0 -49 -41h-230z" />
<glyph unicode="&#xf6;" horiz-adv-x="1034" d="M29 463q0 102 29.5 191t90 154.5t152.5 101.5t215 36q125 0 217 -36t152.5 -101.5t90.5 -154.5t30 -191q0 -104 -30 -193.5t-90.5 -154t-152.5 -102.5t-217 -38q-123 0 -215 38t-152.5 102.5t-90 154t-29.5 193.5zM420 463q0 -119 26.5 -165t69.5 -46q47 0 72.5 46 t25.5 165q0 115 -25.5 161t-72.5 46q-43 0 -69.5 -46t-26.5 -161zM185 1085q0 45 4 92h250q6 -47 6 -92q0 -49 -6 -90h-250q-4 41 -4 90zM590 1085q0 45 6 92h250q4 -47 4 -92q0 -49 -4 -90h-250q-6 41 -6 90z" />
<glyph unicode="&#xf7;" horiz-adv-x="985" d="M35 457v321h915v-321h-915zM301 213q0 39 2 76t4 80h357q2 -43 4 -80t2 -76t-2 -76t-4 -78h-357q-2 41 -4 78t-2 76zM301 1022q0 37 2 75l4 79h357l4 -79q2 -38 2 -75q0 -39 -2 -76t-4 -80h-357q-2 43 -4 80t-2 76z" />
<glyph unicode="&#xf8;" horiz-adv-x="1034" d="M29 463q0 102 29.5 191t90 154.5t152.5 101.5t215 36q72 0 133.5 -12t110.5 -37l96 117l145 -111l-96 -119q49 -61 75 -144t26 -177q0 -104 -30 -193.5t-90.5 -154t-152.5 -102.5t-217 -38q-72 0 -133 13.5t-111 36.5l-96 -113l-143 111l96 114q-51 66 -75.5 147 t-24.5 179zM399 463l174 209q-25 16 -57 16q-53 0 -85 -50t-32 -175zM459 250q25 -16 57 -17q55 0 87 51.5t32 176.5z" />
<glyph unicode="&#xf9;" d="M35 780q0 35 1 71t5 73h465v-564q0 -35 10 -55t39 -20q10 0 22.5 4t23.5 16t18.5 36t7.5 65v518h387v-639h78q4 -35 5 -71t1 -71q0 -37 -1 -72.5t-5 -70.5h-412l-4 68l-39 -29q-23 -16 -54.5 -29.5t-72.5 -24t-88 -10.5q-66 0 -121 16.5t-95 52.5t-63.5 91t-23.5 131v371 h-78q-4 37 -5 72.5t-1 70.5zM215 1159h381l150 -176h-283z" />
<glyph unicode="&#xfa;" d="M35 780q0 35 1 71t5 73h465v-564q0 -35 10 -55t39 -20q10 0 22.5 4t23.5 16t18.5 36t7.5 65v518h387v-639h78q4 -35 5 -71t1 -71q0 -37 -1 -72.5t-5 -70.5h-412l-4 68l-39 -29q-23 -16 -54.5 -29.5t-72.5 -24t-88 -10.5q-66 0 -121 16.5t-95 52.5t-63.5 91t-23.5 131v371 h-78q-4 37 -5 72.5t-1 70.5zM385 983l150 176h381l-248 -176h-283z" />
<glyph unicode="&#xfb;" d="M35 780q0 35 1 71t5 73h465v-564q0 -35 10 -55t39 -20q10 0 22.5 4t23.5 16t18.5 36t7.5 65v518h387v-639h78q4 -35 5 -71t1 -71q0 -37 -1 -72.5t-5 -70.5h-412l-4 68l-39 -29q-23 -16 -54.5 -29.5t-72.5 -24t-88 -10.5q-66 0 -121 16.5t-95 52.5t-63.5 91t-23.5 131v371 h-78q-4 37 -5 72.5t-1 70.5zM180 983l179 176h391l176 -176h-275l-98 80l-94 -80h-279z" />
<glyph unicode="&#xfc;" d="M35 780q0 35 1 71t5 73h465v-564q0 -35 10 -55t39 -20q10 0 22.5 4t23.5 16t18.5 36t7.5 65v518h387v-639h78q4 -35 5 -71t1 -71q0 -37 -1 -72.5t-5 -70.5h-412l-4 68l-39 -29q-23 -16 -54.5 -29.5t-72.5 -24t-88 -10.5q-66 0 -121 16.5t-95 52.5t-63.5 91t-23.5 131v371 h-78q-4 37 -5 72.5t-1 70.5zM234 1073q0 45 4 92h250q6 -47 6 -92q0 -49 -6 -90h-250q-4 41 -4 90zM639 1073q0 45 6 92h250q4 -47 4 -92q0 -49 -4 -90h-250q-6 41 -6 90z" />
<glyph unicode="&#xfd;" horiz-adv-x="1167" d="M35 780q0 35 1 71t5 73h512l4 -71q2 -36 2 -69q0 -35 -2 -69l-4 -70h-39l90 -246l76 246h-39q-4 35 -5 70t-1 69q0 33 1 69t5 71h485q4 -37 6.5 -73t2.5 -71t-2.5 -70.5t-6.5 -72.5h-77l-275 -660q-43 -102 -97 -159.5t-110.5 -85t-111 -32.5t-97.5 -5q-86 0 -144 10 t-103 21v268q33 -14 79 -25.5t91 -11.5t76.5 15.5t50.5 68.5l-289 596h-78q-4 37 -5 72.5t-1 70.5zM419 983l150 176h381l-248 -176h-283z" />
<glyph unicode="&#xfe;" horiz-adv-x="1093" d="M35 -156q0 35 1 67t5 64h78v1029h-78q-4 35 -5 70.5t-1 70.5q0 37 1 72.5t5 70.5h465v-403q31 27 77 44t122 17q100 0 169.5 -36t111.5 -96t60.5 -140t18.5 -166q0 -123 -26.5 -210t-75 -144.5t-119 -84t-152.5 -26.5q-63 0 -115.5 17.5t-70.5 39.5v-125h96l4 -64 q2 -32 2 -67q0 -33 -2 -65l-4 -64h-561q-4 31 -5 63.5t-1 65.5zM496 496q0 -90 22.5 -128t65.5 -38t66.5 38t23.5 128t-23.5 129t-66.5 39t-65.5 -39t-22.5 -129z" />
<glyph unicode="&#xff;" horiz-adv-x="1167" d="M35 780q0 35 1 71t5 73h512l4 -71q2 -36 2 -69q0 -35 -2 -69l-4 -70h-39l90 -246l76 246h-39q-4 35 -5 70t-1 69q0 33 1 69t5 71h485q4 -37 6.5 -73t2.5 -71t-2.5 -70.5t-6.5 -72.5h-77l-275 -660q-43 -102 -97 -159.5t-110.5 -85t-111 -32.5t-97.5 -5q-86 0 -144 10 t-103 21v268q33 -14 79 -25.5t91 -11.5t76.5 15.5t50.5 68.5l-289 596h-78q-4 37 -5 72.5t-1 70.5zM258 1073q0 45 4 92h250q6 -47 6 -92q0 -49 -6 -90h-250q-4 41 -4 90zM663 1073q0 45 6 92h250q4 -47 4 -92q0 -49 -4 -90h-250q-6 41 -6 90z" />
<glyph unicode="&#x131;" horiz-adv-x="622" d="M35 143q0 35 1 71t5 71h78v352h-78q-4 37 -5 72.5t-1 70.5t1 71t5 73h465v-639h78l4 -71q2 -36 2 -71q0 -37 -2 -72l-4 -71h-543q-4 35 -5 70.5t-1 72.5z" />
<glyph unicode="&#x152;" horiz-adv-x="1779" d="M31 618q0 111 33.5 223.5t110.5 203t199 147.5t296 57q94 0 193.5 -5t185.5 -5h686v-379q-47 -4 -93.5 -5t-91.5 -1t-91 1t-93 5v62h-192v-131h387q4 -41 5 -82t1 -80q0 -41 -1 -81t-5 -79h-387v-152h200v78q82 6 168 6q51 0 102 -2l101 -4v-395h-696q-86 0 -187.5 -5 t-208.5 -5q-170 0 -288.5 56t-192.5 146.5t-107.5 201.5t-33.5 224zM457 618q0 -84 17.5 -140t46 -92t67.5 -52.5t86 -16.5q33 0 53.5 1t36.5 4v596q-16 2 -35.5 3t-50.5 1q-92 0 -156.5 -74t-64.5 -230z" />
<glyph unicode="&#x153;" horiz-adv-x="1519" d="M29 463q0 98 29.5 185t90 153.5t150.5 104.5t213 38q86 0 153.5 -18.5t120.5 -65.5q49 39 119 61.5t162 22.5q123 0 206 -42t131 -106.5t68.5 -144.5t20.5 -153v-133h-514q14 -49 60 -78t126 -29t149.5 12.5t139.5 30.5v-276q-90 -25 -175 -36.5t-159 -11.5 q-111 0 -191.5 25t-131.5 66q-47 -39 -123 -65t-176 -26q-117 0 -205 38t-146.5 102.5t-88 154t-29.5 191.5zM414 463q0 -106 25.5 -157.5t72.5 -51.5q43 0 69.5 51t26.5 158q0 104 -26.5 154.5t-69.5 50.5q-47 0 -72.5 -50.5t-25.5 -154.5zM967 575h170q-2 68 -27 92.5 t-55 24.5q-35 0 -57.5 -24.5t-30.5 -92.5z" />
<glyph unicode="&#x178;" horiz-adv-x="1337" d="M35 1085q0 39 2 77t6 77h582l4 -74q2 -37 2 -73q0 -37 -2 -73l-4 -75h-60l113 -205l123 205h-58q-4 39 -6 75t-2 73t2 73.5t6 73.5h551q4 -39 6.5 -77t2.5 -77t-2.5 -75.5t-6.5 -75.5h-84l-336 -457v-172h101l4 -76q2 -37 2 -75q0 -39 -2 -77l-4 -77h-610q-4 39 -6.5 77 t-2.5 77t2 75.5t7 75.5h98v172l-336 457h-84q-4 39 -6 75.5t-2 75.5zM336 1393q0 43 4 92h250q6 -49 6 -92q0 -47 -6 -97h-250q-4 50 -4 97zM741 1393q0 43 6 92h250q4 -49 4 -92q0 -47 -4 -97h-250q-6 50 -6 97z" />
<glyph unicode="&#x2c6;" horiz-adv-x="778" d="M16 983l179 176h391l176 -176h-275l-98 80l-94 -80h-279z" />
<glyph unicode="&#x2c9;" horiz-adv-x="622" d="M0 985v170h625v-170h-625z" />
<glyph unicode="&#x2dc;" horiz-adv-x="782" d="M16 983q8 96 67.5 141t160.5 45q43 0 84 -11t80 -23l51 -13q16 -4 28 -4q45 0 50 41h229q-6 -102 -63.5 -144t-145.5 -42q-55 0 -98 11l-84 22q-33 10 -50.5 14t-29.5 4q-43 0 -49 -41h-230z" />
<glyph unicode="&#x2013;" horiz-adv-x="849" d="M0 375v317h850v-317h-850z" />
<glyph unicode="&#x2014;" horiz-adv-x="1699" d="M0 375v317h1700v-317h-1700z" />
<glyph unicode="&#x2018;" horiz-adv-x="481" d="M35 895q0 43 3 88t7 92l148 213h253l-122 -213h116q4 -47 5 -92t1 -88q0 -45 -1 -91t-5 -89h-395q-4 43 -7 89t-3 91z" />
<glyph unicode="&#x2019;" horiz-adv-x="481" d="M35 715l125 213h-117q-4 47 -6 92t-2 88q0 45 2 91t6 89h395q4 -43 6 -89t2 -91q0 -43 -2 -88t-6 -92l-147 -213h-256z" />
<glyph unicode="&#x201a;" horiz-adv-x="481" d="M35 180q0 45 2 90t6 90h395q4 -45 6 -90t2 -90t-2 -90t-6 -90l-147 -215h-256l125 215h-117q-4 45 -6 90t-2 90z" />
<glyph unicode="&#x201c;" horiz-adv-x="962" d="M35 895q0 43 3 88t7 92l148 213h253l-122 -213h116q4 -47 5 -92t1 -88q0 -45 -1 -91t-5 -89h-395q-4 43 -7 89t-3 91zM516 895q0 43 3 88t7 92l148 213h253l-122 -213h116q4 -47 5 -92t1 -88q0 -45 -1 -91t-5 -89h-395q-4 43 -7 89t-3 91z" />
<glyph unicode="&#x201d;" horiz-adv-x="962" d="M35 715l125 213h-117q-4 47 -6 92t-2 88q0 45 2 91t6 89h395q4 -43 6 -89t2 -91q0 -43 -2 -88t-6 -92l-147 -213h-256zM516 715l125 213h-117q-4 47 -6 92t-2 88q0 45 2 91t6 89h395q4 -43 6 -89t2 -91q0 -43 -2 -88t-6 -92l-147 -213h-256z" />
<glyph unicode="&#x201e;" horiz-adv-x="962" d="M35 180q0 45 2 90t6 90h395q4 -45 6 -90t2 -90t-2 -90t-6 -90l-147 -215h-256l125 215h-117q-4 45 -6 90t-2 90zM516 180q0 45 2 90t6 90h395q4 -45 6 -90t2 -90t-2 -90t-6 -90l-147 -215h-256l125 215h-117q-4 45 -6 90t-2 90z" />
<glyph unicode="&#x2022;" horiz-adv-x="714" d="M25 612q0 68 25.5 129.5t70.5 106.5t105.5 70.5t129.5 25.5q70 0 130.5 -25.5t105.5 -70.5t71.5 -106.5t26.5 -129.5q0 -70 -26.5 -130t-71.5 -105t-105.5 -71.5t-130.5 -26.5t-130 26.5t-104 71.5t-70.5 105t-26.5 130z" />
<glyph unicode="&#x2026;" horiz-adv-x="1538" d="M35 188q0 47 3 94.5t7 96.5h414q4 -49 5 -96t1 -95q0 -47 -1 -94t-5 -94h-414q-4 47 -7 94t-3 94zM551 188q0 47 3 94.5t7 96.5h414q4 -49 5 -96t1 -95q0 -47 -1 -94t-5 -94h-414q-4 47 -7 94t-3 94zM1069 188q0 47 3 94.5t7 96.5h414q4 -49 5 -96t1 -95q0 -47 -1 -94 t-5 -94h-414q-4 47 -7 94t-3 94z" />
<glyph unicode="&#x2039;" horiz-adv-x="626" d="M16 463l195 383h399l-194 -383l194 -383h-399z" />
<glyph unicode="&#x203a;" horiz-adv-x="626" d="M16 80l195 383l-195 383h400l194 -383l-194 -383h-400z" />
<glyph unicode="&#x2044;" horiz-adv-x="243" d="M-397 0l725 1239h315l-727 -1239h-313z" />
<glyph unicode="&#x2074;" horiz-adv-x="768" d="M25 674v170l360 395h272v-403h78q4 -41 4 -82q0 -39 -4 -80h-78v-88h-276v88h-356zM246 829h139v156z" />
<glyph unicode="&#x20ac;" horiz-adv-x="1177" d="M35 375l35 141h69q-2 23 -3 46.5t-1 47.5h-100l35 142h75q14 129 59.5 221t110 151.5t143.5 87t165 27.5q102 0 158.5 -22.5t84.5 -42.5v34q35 4 70 5t70 1t70.5 -1t70.5 -5v-393q-41 -4 -82 -6t-80 -2q-41 0 -81 2t-81 6v10q0 45 -28.5 78t-89.5 33q-27 0 -53.5 -6 t-49 -25.5t-40 -56.5t-27.5 -96h423l-34 -142h-400v-4q0 -25 2 -47t6 -43h426l-34 -141h-342q25 -33 55.5 -52.5t63 -28.5t63.5 -11t57 -2q63 0 118.5 16t97.5 36.5t70 39t32 22.5v-340q-10 -6 -42 -20.5t-83 -28.5t-123 -25.5t-164 -11.5t-180 19.5t-164 66.5t-133 125 t-86 195h-129z" />
<glyph unicode="&#x2122;" horiz-adv-x="1792" d="M35 965v274h741v-274q-23 -6 -45 -8.5t-43 -2.5q-23 0 -48.5 2t-47.5 9v104h-72v-403h60q4 -23 6 -43.5t2 -36.5q0 -18 -2 -40t-6 -42h-347q-6 20 -7 40.5t-1 41.5q0 18 1 38.5t7 41.5h58v403h-70v-104q-25 -6 -50.5 -8.5t-47.5 -2.5q-23 0 -44 2.5t-44 8.5zM836 586 q0 18 1 38.5t7 41.5h53v409h-53q-6 23 -7 43.5t-1 38.5t1 39t7 43h323l129 -434l129 434h326q4 -25 6 -44t2 -38q0 -16 -2 -37.5t-6 -44.5h-55v-409h55q4 -23 6 -43.5t2 -36.5q0 -18 -2 -40t-6 -42h-281v364l-96 -350h-166l-94 352v-366h-270q-6 20 -7 41t-1 41z" />
<glyph unicode="&#xe000;" horiz-adv-x="925" d="M0 925h925v-925h-925v925z" />
<glyph unicode="&#xf001;" horiz-adv-x="1140" d="M35 780q0 35 1 71t5 73h94v20q0 80 30 148.5t89 116.5t150.5 76t213.5 28q68 0 126.5 -6.5t102.5 -14.5t72.5 -15t41.5 -11v-269q-10 4 -42 11.5t-73 13.5t-85 11t-77 5q-80 0 -120 -21.5t-40 -76.5v-16h500v-639h78q4 -35 5 -71t1 -71q0 -37 -1 -72.5t-5 -70.5h-465v637 h-113v-637h-467l-4 71q-2 36 -2 72q0 35 2 71l4 71h78v352h-94q-4 37 -5 72.5t-1 70.5z" />
<glyph unicode="&#xf002;" horiz-adv-x="1140" d="M35 780q0 35 1 71t5 73h94v18q0 94 36 164t99.5 116t145.5 68.5t178 22.5q94 0 171 -14.5t132 -30t87 -30.5l40 -19v-934h78q4 -35 5 -71t1 -71q0 -37 -1 -72.5t-5 -70.5h-465v1030q-4 2 -13.5 3t-21.5 1q-39 0 -58.5 -22.5t-19.5 -63.5v-24h62l4 -73q2 -36 2 -71t-2 -70 l-4 -73h-62v-637h-467l-4 71q-2 36 -2 72q0 35 2 71l4 71h78v352h-94q-4 37 -5 72.5t-1 70.5z" />
<glyph unicode="&#xfb01;" horiz-adv-x="1140" d="M35 780q0 35 1 71t5 73h94v20q0 80 30 148.5t89 116.5t150.5 76t213.5 28q68 0 126.5 -6.5t102.5 -14.5t72.5 -15t41.5 -11v-269q-10 4 -42 11.5t-73 13.5t-85 11t-77 5q-80 0 -120 -21.5t-40 -76.5v-16h500v-639h78q4 -35 5 -71t1 -71q0 -37 -1 -72.5t-5 -70.5h-465v637 h-113v-637h-467l-4 71q-2 36 -2 72q0 35 2 71l4 71h78v352h-94q-4 37 -5 72.5t-1 70.5z" />
<glyph unicode="&#xfb02;" horiz-adv-x="1140" d="M35 780q0 35 1 71t5 73h94v18q0 94 36 164t99.5 116t145.5 68.5t178 22.5q94 0 171 -14.5t132 -30t87 -30.5l40 -19v-934h78q4 -35 5 -71t1 -71q0 -37 -1 -72.5t-5 -70.5h-465v1030q-4 2 -13.5 3t-21.5 1q-39 0 -58.5 -22.5t-19.5 -63.5v-24h62l4 -73q2 -36 2 -71t-2 -70 l-4 -73h-62v-637h-467l-4 71q-2 36 -2 72q0 35 2 71l4 71h78v352h-94q-4 37 -5 72.5t-1 70.5z" />
<glyph unicode="&#xfb03;" horiz-adv-x="1642" d="M35 780q0 35 1 71t5 73h94v53q0 166 100.5 251t272.5 85q125 0 200.5 -20.5t114.5 -37.5q53 27 127 42.5t170 15.5q68 0 126.5 -6.5t102.5 -14.5t72.5 -15t40.5 -11v-269q-10 4 -41.5 11.5t-72.5 13.5t-85 11t-77 5q-80 0 -121 -21.5t-41 -76.5v-16h502v-639h78l4 -71 q2 -36 2 -71q0 -37 -2 -72l-4 -71h-465v637h-115v-637h-387v637h-113v-637h-467l-4 71q-2 36 -2 72q0 35 2 71l4 71h78v352h-94q-4 37 -5 72.5t-1 70.5zM520 924h121v20q0 31 2 52.5t12 50.5q-4 2 -15 5t-36 3q-37 0 -60.5 -19.5t-23.5 -68.5v-43z" />
<glyph unicode="&#xfb04;" horiz-adv-x="1642" d="M35 780q0 35 1 71t5 73h94v53q0 166 100.5 251t272.5 85q113 0 192.5 -19.5t124.5 -38.5q55 29 124 43.5t147 14.5q94 0 170.5 -14.5t132 -30t87.5 -30.5l40 -19v-934h78l4 -71q2 -36 2 -71q0 -37 -2 -72l-4 -71h-465v1030q-4 2 -13.5 3t-21.5 1q-39 0 -59.5 -22.5 t-20.5 -63.5v-24h61q4 -37 6.5 -73t2.5 -71t-2 -70.5t-7 -72.5h-61v-637h-387v637h-113v-637h-467l-4 71q-2 36 -2 72q0 35 2 71l4 71h78v352h-94q-4 37 -5 72.5t-1 70.5zM520 924h121v18q0 59 12 105q-8 4 -19 6t-30 2q-37 0 -60.5 -19.5t-23.5 -68.5v-43z" />
<glyph horiz-adv-x="782" d="M16 1296q8 98 67.5 143.5t160.5 45.5q43 0 84 -11.5l80 -23.5l51 -12q16 -4 28 -4q45 0 50 41h229q-6 -102 -63.5 -145.5t-145.5 -43.5q-55 0 -98 11.5l-84 23.5q-33 10 -50.5 13t-29.5 3q-43 0 -49 -41h-230z" />
<glyph horiz-adv-x="727" d="M31 1393q0 43 4 92h250q6 -49 6 -92q0 -47 -6 -97h-250q-4 50 -4 97zM436 1393q0 43 6 92h250q4 -49 4 -92q0 -47 -4 -97h-250q-6 50 -6 97z" />
<glyph horiz-adv-x="778" d="M16 1296l179 179h391l176 -179h-275l-98 80l-94 -80h-279z" />
<glyph horiz-adv-x="563" d="M16 1296l150 179h381l-248 -179h-283z" />
<glyph horiz-adv-x="563" d="M16 1475h381l150 -179h-283z" />
</font>
</defs>
</svg>
